<?xml version="1.0" standalone="no"?>
<!DOCTYPE svg PUBLIC "-//W3C//DTD SVG 20010904//EN"
 "http://www.w3.org/TR/2001/REC-SVG-20010904/DTD/svg10.dtd">
<svg version="1.0" xmlns="http://www.w3.org/2000/svg"
 width="260.000000pt" height="260.000000pt" viewBox="0 0 260.000000 260.000000"
 preserveAspectRatio="xMidYMid meet">
<metadata>
Created by potrace 1.11, written by Peter Selinger 2001-2013
</metadata>
<g transform="translate(0.000000,260.000000) scale(0.100000,-0.100000)"
fill="#000000" stroke="none">
<path d="M1133 1976 c-124 -30 -255 -131 -316 -243 l-27 -51 86 -36 c111 -47
134 -52 134 -34 0 29 74 101 131 128 123 58 258 19 338 -98 63 -91 54 -221
-21 -324 -11 -15 -2 -27 66 -95 l78 -78 34 40 c66 78 105 185 109 300 4 132
-41 248 -136 349 -121 130 -302 184 -476 142z"/>
<path d="M347 1565 c-166 -56 -282 -176 -331 -343 -21 -73 -16 -219 11 -292
54 -149 161 -252 315 -305 l73 -24 697 -1 698 0 0 112 0 113 -683 -1 c-776 -1
-736 -5 -822 81 -61 61 -83 117 -79 201 3 74 28 128 86 183 125 120 339 83
419 -71 21 -42 33 -45 85 -23 19 8 36 14 39 15 3 0 10 2 17 5 7 2 30 9 51 15
20 6 37 16 37 21 0 32 -63 132 -120 189 -99 100 -200 142 -348 144 -60 1 -99
-4 -145 -19z"/>
<path d="M1990 1573 c-36 -8 -68 -18 -73 -22 -7 -7 4 -39 49 -139 13 -29 24
-57 24 -62 0 -5 14 -4 33 1 53 16 133 11 185 -11 171 -74 217 -297 90 -429
-54 -56 -116 -84 -198 -87 -36 -2 -67 -3 -70 -4 -3 0 -5 -48 -5 -107 l0 -108
85 -1 c363 -2 591 372 433 711 -24 52 -37 69 -104 136 -114 112 -285 159 -449
122z"/>
</g>
</svg>
