<?xml version="1.0" encoding="UTF-8"?>
<svg width="210px" height="65px" viewBox="0 0 210 65" version="1.1" xmlns="http://www.w3.org/2000/svg" xmlns:xlink="http://www.w3.org/1999/xlink">
    <!-- Generator: Sketch 51.2 (57519) - http://www.bohemiancoding.com/sketch -->
    <title>App Store - Hover</title>
    <desc>Created with Sketch.</desc>
    <defs></defs>
    <g id="App-Store---Hover" stroke="none" stroke-width="1" fill="none" fill-rule="evenodd">
        <g id="App-Store">
            <rect id="Dark-Grey" fill="#364B7F" x="0" y="0" width="210" height="65" rx="10"></rect>
            <path d="M51.3357996,47.7046743 C49.581044,50.2593981 47.7659107,52.7984076 44.9000774,52.8516267 C42.0796329,52.9048457 41.175444,51.1884267 37.9570551,51.1884267 C34.7352885,51.1884267 33.727444,52.7984076 31.0644674,52.9048457 C28.2977929,53.0079314 26.1940496,50.1456267 24.4248329,47.6024267 C20.8103785,42.4024648 18.051684,32.8995124 21.7618351,26.4863657 C23.5990929,23.3014571 26.891244,21.286341 30.4587896,21.2331429 C33.1758107,21.18336 35.7424996,23.0568171 37.402044,23.0568171 C39.0641218,23.0568171 42.1794885,20.8075162 45.4546663,21.1374324 C46.8256218,21.1938152 50.6733329,21.6874114 53.1443885,25.28724 C52.9491107,25.4150286 48.5516663,27.9620838 48.6052885,33.2684838 C48.6591218,39.6072076 54.1845329,41.714179 54.2487107,41.7428838 C54.1986774,41.8918552 53.3654218,44.7508076 51.3357996,47.7046743 Z M39.3030996,14.1742229 C40.8199329,12.4046476 43.3828218,11.08844 45.497944,11 C45.7681663,13.4580286 44.7748885,15.9194514 43.3078774,17.6931124 C41.8379107,19.4635886 39.4316663,20.8427581 37.0701774,20.6586076 C36.7492885,18.2537771 37.9395329,15.7457352 39.3030996,14.1742229 Z" id="logo" fill="#FFFFFF" fill-rule="nonzero"></path>
            <path d="M74.26,15.6 L77.8,15.6 C78.6880044,15.6 79.4759966,15.7759982 80.164,16.128 C80.8520034,16.4800018 81.3859981,16.9739968 81.766,17.61 C82.1460019,18.2460032 82.336,18.9759959 82.336,19.8 C82.336,20.6240041 82.1460019,21.3539968 81.766,21.99 C81.3859981,22.6260032 80.8520034,23.1199982 80.164,23.472 C79.4759966,23.8240018 78.6880044,24 77.8,24 L74.26,24 L74.26,15.6 Z M77.728,22.956 C78.4080034,22.956 79.0059974,22.8240013 79.522,22.56 C80.0380026,22.2959987 80.4359986,21.9260024 80.716,21.45 C80.9960014,20.9739976 81.136,20.4240031 81.136,19.8 C81.136,19.1759969 80.9960014,18.6260024 80.716,18.15 C80.4359986,17.6739976 80.0380026,17.3040013 79.522,17.04 C79.0059974,16.7759987 78.4080034,16.644 77.728,16.644 L75.46,16.644 L75.46,22.956 L77.728,22.956 Z M86.728,24.072 C86.0959968,24.072 85.5280025,23.9320014 85.024,23.652 C84.5199975,23.3719986 84.1260014,22.9860025 83.842,22.494 C83.5579986,22.0019975 83.416,21.4440031 83.416,20.82 C83.416,20.1959969 83.5579986,19.6380025 83.842,19.146 C84.1260014,18.6539975 84.5199975,18.2700014 85.024,17.994 C85.5280025,17.7179986 86.0959968,17.58 86.728,17.58 C87.3600032,17.58 87.9259975,17.7179986 88.426,17.994 C88.9260025,18.2700014 89.3179986,18.6539975 89.602,19.146 C89.8860014,19.6380025 90.028,20.1959969 90.028,20.82 C90.028,21.4440031 89.8860014,22.0019975 89.602,22.494 C89.3179986,22.9860025 88.9260025,23.3719986 88.426,23.652 C87.9259975,23.9320014 87.3600032,24.072 86.728,24.072 Z M86.728,23.064 C87.136002,23.064 87.5019984,22.9700009 87.826,22.782 C88.1500016,22.5939991 88.4039991,22.3300017 88.588,21.99 C88.7720009,21.6499983 88.864,21.2600022 88.864,20.82 C88.864,20.3799978 88.7720009,19.9900017 88.588,19.65 C88.4039991,19.3099983 88.1500016,19.0480009 87.826,18.864 C87.5019984,18.6799991 87.136002,18.588 86.728,18.588 C86.319998,18.588 85.9540016,18.6799991 85.63,18.864 C85.3059984,19.0480009 85.0500009,19.3099983 84.862,19.65 C84.6739991,19.9900017 84.58,20.3799978 84.58,20.82 C84.58,21.2600022 84.6739991,21.6499983 84.862,21.99 C85.0500009,22.3300017 85.3059984,22.5939991 85.63,22.782 C85.9540016,22.9700009 86.319998,23.064 86.728,23.064 Z M101.068,17.64 L98.692,24 L97.588,24 L95.752,19.176 L93.892,24 L92.788,24 L90.424,17.64 L91.516,17.64 L93.364,22.704 L95.284,17.64 L96.256,17.64 L98.14,22.728 L100.036,17.64 L101.068,17.64 Z M105.628,17.58 C106.436004,17.58 107.077998,17.8139977 107.554,18.282 C108.030002,18.7500023 108.268,19.4359955 108.268,20.34 L108.268,24 L107.116,24 L107.116,20.472 C107.116,19.8559969 106.968001,19.3920016 106.672,19.08 C106.375999,18.7679984 105.952003,18.612 105.4,18.612 C104.775997,18.612 104.284002,18.7939982 103.924,19.158 C103.563998,19.5220018 103.384,20.0439966 103.384,20.724 L103.384,24 L102.232,24 L102.232,17.64 L103.336,17.64 L103.336,18.6 C103.568001,18.2719984 103.881998,18.0200009 104.278,17.844 C104.674002,17.6679991 105.123997,17.58 105.628,17.58 Z M110.404,15.096 L111.556,15.096 L111.556,24 L110.404,24 L110.404,15.096 Z M116.476,24.072 C115.843997,24.072 115.276003,23.9320014 114.772,23.652 C114.267997,23.3719986 113.874001,22.9860025 113.59,22.494 C113.305999,22.0019975 113.164,21.4440031 113.164,20.82 C113.164,20.1959969 113.305999,19.6380025 113.59,19.146 C113.874001,18.6539975 114.267997,18.2700014 114.772,17.994 C115.276003,17.7179986 115.843997,17.58 116.476,17.58 C117.108003,17.58 117.673997,17.7179986 118.174,17.994 C118.674003,18.2700014 119.065999,18.6539975 119.35,19.146 C119.634001,19.6380025 119.776,20.1959969 119.776,20.82 C119.776,21.4440031 119.634001,22.0019975 119.35,22.494 C119.065999,22.9860025 118.674003,23.3719986 118.174,23.652 C117.673997,23.9320014 117.108003,24.072 116.476,24.072 Z M116.476,23.064 C116.884002,23.064 117.249998,22.9700009 117.574,22.782 C117.898002,22.5939991 118.151999,22.3300017 118.336,21.99 C118.520001,21.6499983 118.612,21.2600022 118.612,20.82 C118.612,20.3799978 118.520001,19.9900017 118.336,19.65 C118.151999,19.3099983 117.898002,19.0480009 117.574,18.864 C117.249998,18.6799991 116.884002,18.588 116.476,18.588 C116.067998,18.588 115.702002,18.6799991 115.378,18.864 C115.053998,19.0480009 114.798001,19.3099983 114.61,19.65 C114.421999,19.9900017 114.328,20.3799978 114.328,20.82 C114.328,21.2600022 114.421999,21.6499983 114.61,21.99 C114.798001,22.3300017 115.053998,22.5939991 115.378,22.782 C115.702002,22.9700009 116.067998,23.064 116.476,23.064 Z M123.628,17.58 C124.508004,17.58 125.181998,17.7959978 125.65,18.228 C126.118002,18.6600022 126.352,19.3039957 126.352,20.16 L126.352,24 L125.26,24 L125.26,23.16 C125.067999,23.4560015 124.794002,23.6819992 124.438,23.838 C124.081998,23.9940008 123.660002,24.072 123.172,24.072 C122.459996,24.072 121.890002,23.9000017 121.462,23.556 C121.033998,23.2119983 120.82,22.7600028 120.82,22.2 C120.82,21.6399972 121.023998,21.1900017 121.432,20.85 C121.840002,20.5099983 122.487996,20.34 123.376,20.34 L125.2,20.34 L125.2,20.112 C125.2,19.6159975 125.056001,19.2360013 124.768,18.972 C124.479999,18.7079987 124.056003,18.576 123.496,18.576 C123.119998,18.576 122.752002,18.6379994 122.392,18.762 C122.031998,18.8860006 121.728001,19.051999 121.48,19.26 L121,18.396 C121.328002,18.1319987 121.719998,17.9300007 122.176,17.79 C122.632002,17.6499993 123.115997,17.58 123.628,17.58 Z M123.364,23.184 C123.804002,23.184 124.183998,23.086001 124.504,22.89 C124.824002,22.693999 125.055999,22.4160018 125.2,22.056 L125.2,21.168 L123.424,21.168 C122.447995,21.168 121.96,21.4959967 121.96,22.152 C121.96,22.4720016 122.083999,22.7239991 122.332,22.908 C122.580001,23.0920009 122.923998,23.184 123.364,23.184 Z M134.524,15.096 L134.524,24 L133.42,24 L133.42,22.992 C133.163999,23.3440018 132.840002,23.6119991 132.448,23.796 C132.055998,23.9800009 131.624002,24.072 131.152,24.072 C130.535997,24.072 129.984002,23.9360014 129.496,23.664 C129.007998,23.3919986 128.626001,23.0100025 128.35,22.518 C128.073999,22.0259975 127.936,21.4600032 127.936,20.82 C127.936,20.1799968 128.073999,19.6160024 128.35,19.128 C128.626001,18.6399976 129.007998,18.2600014 129.496,17.988 C129.984002,17.7159986 130.535997,17.58 131.152,17.58 C131.608002,17.58 132.027998,17.6659991 132.412,17.838 C132.796002,18.0100009 133.115999,18.2639983 133.372,18.6 L133.372,15.096 L134.524,15.096 Z M131.248,23.064 C131.648002,23.064 132.011998,22.9700009 132.34,22.782 C132.668002,22.5939991 132.923999,22.3300017 133.108,21.99 C133.292001,21.6499983 133.384,21.2600022 133.384,20.82 C133.384,20.3799978 133.292001,19.9900017 133.108,19.65 C132.923999,19.3099983 132.668002,19.0480009 132.34,18.864 C132.011998,18.6799991 131.648002,18.588 131.248,18.588 C130.839998,18.588 130.474002,18.6799991 130.15,18.864 C129.825998,19.0480009 129.570001,19.3099983 129.382,19.65 C129.193999,19.9900017 129.1,20.3799978 129.1,20.82 C129.1,21.2600022 129.193999,21.6499983 129.382,21.99 C129.570001,22.3300017 129.825998,22.5939991 130.15,22.782 C130.474002,22.9700009 130.839998,23.064 131.248,23.064 Z M142.66,24.072 C142.027997,24.072 141.460003,23.9320014 140.956,23.652 C140.451997,23.3719986 140.058001,22.9860025 139.774,22.494 C139.489999,22.0019975 139.348,21.4440031 139.348,20.82 C139.348,20.1959969 139.489999,19.6380025 139.774,19.146 C140.058001,18.6539975 140.451997,18.2700014 140.956,17.994 C141.460003,17.7179986 142.027997,17.58 142.66,17.58 C143.292003,17.58 143.857998,17.7179986 144.358,17.994 C144.858002,18.2700014 145.249999,18.6539975 145.534,19.146 C145.818001,19.6380025 145.96,20.1959969 145.96,20.82 C145.96,21.4440031 145.818001,22.0019975 145.534,22.494 C145.249999,22.9860025 144.858002,23.3719986 144.358,23.652 C143.857998,23.9320014 143.292003,24.072 142.66,24.072 Z M142.66,23.064 C143.068002,23.064 143.433998,22.9700009 143.758,22.782 C144.082002,22.5939991 144.335999,22.3300017 144.52,21.99 C144.704001,21.6499983 144.796,21.2600022 144.796,20.82 C144.796,20.3799978 144.704001,19.9900017 144.52,19.65 C144.335999,19.3099983 144.082002,19.0480009 143.758,18.864 C143.433998,18.6799991 143.068002,18.588 142.66,18.588 C142.251998,18.588 141.886002,18.6799991 141.562,18.864 C141.237998,19.0480009 140.982001,19.3099983 140.794,19.65 C140.605999,19.9900017 140.512,20.3799978 140.512,20.82 C140.512,21.2600022 140.605999,21.6499983 140.794,21.99 C140.982001,22.3300017 141.237998,22.5939991 141.562,22.782 C141.886002,22.9700009 142.251998,23.064 142.66,23.064 Z M150.952,17.58 C151.760004,17.58 152.401998,17.8139977 152.878,18.282 C153.354002,18.7500023 153.592,19.4359955 153.592,20.34 L153.592,24 L152.44,24 L152.44,20.472 C152.44,19.8559969 152.292001,19.3920016 151.996,19.08 C151.699999,18.7679984 151.276003,18.612 150.724,18.612 C150.099997,18.612 149.608002,18.7939982 149.248,19.158 C148.887998,19.5220018 148.708,20.0439966 148.708,20.724 L148.708,24 L147.556,24 L147.556,17.64 L148.66,17.64 L148.66,18.6 C148.892001,18.2719984 149.205998,18.0200009 149.602,17.844 C149.998002,17.6679991 150.447997,17.58 150.952,17.58 Z M162.532,23.628 C162.363999,23.7720007 162.156001,23.8819996 161.908,23.958 C161.659999,24.0340004 161.404001,24.072 161.14,24.072 C160.499997,24.072 160.004002,23.9000017 159.652,23.556 C159.299998,23.2119983 159.124,22.7200032 159.124,22.08 L159.124,18.588 L158.044,18.588 L158.044,17.64 L159.124,17.64 L159.124,16.248 L160.276,16.248 L160.276,17.64 L162.1,17.64 L162.1,18.588 L160.276,18.588 L160.276,22.032 C160.276,22.3760017 160.361999,22.6399991 160.534,22.824 C160.706001,23.0080009 160.951998,23.1 161.272,23.1 C161.624002,23.1 161.923999,23.000001 162.172,22.8 L162.532,23.628 Z M167.32,17.58 C168.128004,17.58 168.769998,17.8139977 169.246,18.282 C169.722002,18.7500023 169.96,19.4359955 169.96,20.34 L169.96,24 L168.808,24 L168.808,20.472 C168.808,19.8559969 168.660001,19.3920016 168.364,19.08 C168.067999,18.7679984 167.644003,18.612 167.092,18.612 C166.467997,18.612 165.976002,18.7939982 165.616,19.158 C165.255998,19.5220018 165.076,20.0439966 165.076,20.724 L165.076,24 L163.924,24 L163.924,15.096 L165.076,15.096 L165.076,18.54 C165.316001,18.2359985 165.629998,18.0000008 166.018,17.832 C166.406002,17.6639992 166.839998,17.58 167.32,17.58 Z M177.88,20.856 C177.88,20.9440004 177.872,21.0599993 177.856,21.204 L172.696,21.204 C172.768,21.7640028 173.013998,22.2139983 173.434,22.554 C173.854002,22.8940017 174.375997,23.064 175,23.064 C175.760004,23.064 176.371998,22.8080026 176.836,22.296 L177.472,23.04 C177.183999,23.3760017 176.826002,23.6319991 176.398,23.808 C175.969998,23.9840009 175.492003,24.072 174.964,24.072 C174.291997,24.072 173.696003,23.9340014 173.176,23.658 C172.655997,23.3819986 172.254001,22.9960025 171.97,22.5 C171.685999,22.0039975 171.544,21.4440031 171.544,20.82 C171.544,20.2039969 171.681999,19.6480025 171.958,19.152 C172.234001,18.6559975 172.613998,18.2700014 173.098,17.994 C173.582002,17.7179986 174.127997,17.58 174.736,17.58 C175.344003,17.58 175.885998,17.7179986 176.362,17.994 C176.838002,18.2700014 177.209999,18.6559975 177.478,19.152 C177.746001,19.6480025 177.88,20.2159968 177.88,20.856 Z M174.736,18.552 C174.183997,18.552 173.722002,18.7199983 173.35,19.056 C172.977998,19.3920017 172.76,19.8319973 172.696,20.376 L176.776,20.376 C176.712,19.8399973 176.494002,19.4020017 176.122,19.062 C175.749998,18.7219983 175.288003,18.552 174.736,18.552 Z" id="Download-on-the" fill="#FFFFFF"></path>
            <path d="M85.122,44.15 L76.938,44.15 L75.244,48 L72.978,48 L79.952,32.6 L82.13,32.6 L89.126,48 L86.816,48 L85.122,44.15 Z M84.352,42.39 L81.03,34.844 L77.708,42.39 L84.352,42.39 Z M97.288,36.23 C98.417339,36.23 99.4293289,36.4793308 100.324,36.978 C101.218671,37.4766692 101.918997,38.1733289 102.425,39.068 C102.931003,39.9626711 103.184,40.9966608 103.184,42.17 C103.184,43.3433392 102.931003,44.3809955 102.425,45.283 C101.918997,46.1850045 101.218671,46.8853308 100.324,47.384 C99.4293289,47.8826692 98.417339,48.132 97.288,48.132 C96.4519958,48.132 95.6856701,47.9706683 94.989,47.648 C94.2923299,47.3253317 93.7020024,46.8560031 93.218,46.24 L93.218,52.268 L91.106,52.268 L91.106,36.34 L93.13,36.34 L93.13,38.188 C93.5993357,37.5426634 94.1933297,37.0550016 94.912,36.725 C95.6306703,36.3949984 96.4226623,36.23 97.288,36.23 Z M97.112,46.284 C97.8600037,46.284 98.530997,46.1116684 99.125,45.767 C99.719003,45.4223316 100.188332,44.9383365 100.533,44.315 C100.877668,43.6916636 101.05,42.9766707 101.05,42.17 C101.05,41.3633293 100.877668,40.6483365 100.533,40.025 C100.188332,39.4016636 99.719003,38.921335 99.125,38.584 C98.530997,38.246665 97.8600037,38.078 97.112,38.078 C96.378663,38.078 95.715003,38.2503316 95.121,38.595 C94.526997,38.9396684 94.0576684,39.4199969 93.713,40.036 C93.3683316,40.6520031 93.196,41.3633293 93.196,42.17 C93.196,42.9766707 93.364665,43.6916636 93.702,44.315 C94.039335,44.9383365 94.5086637,45.4223316 95.11,45.767 C95.7113363,46.1116684 96.378663,46.284 97.112,46.284 Z M112.292,36.23 C113.421339,36.23 114.433329,36.4793308 115.328,36.978 C116.222671,37.4766692 116.922997,38.1733289 117.429,39.068 C117.935003,39.9626711 118.188,40.9966608 118.188,42.17 C118.188,43.3433392 117.935003,44.3809955 117.429,45.283 C116.922997,46.1850045 116.222671,46.8853308 115.328,47.384 C114.433329,47.8826692 113.421339,48.132 112.292,48.132 C111.455996,48.132 110.68967,47.9706683 109.993,47.648 C109.29633,47.3253317 108.706002,46.8560031 108.222,46.24 L108.222,52.268 L106.11,52.268 L106.11,36.34 L108.134,36.34 L108.134,38.188 C108.603336,37.5426634 109.19733,37.0550016 109.916,36.725 C110.63467,36.3949984 111.426662,36.23 112.292,36.23 Z M112.116,46.284 C112.864004,46.284 113.534997,46.1116684 114.129,45.767 C114.723003,45.4223316 115.192332,44.9383365 115.537,44.315 C115.881668,43.6916636 116.054,42.9766707 116.054,42.17 C116.054,41.3633293 115.881668,40.6483365 115.537,40.025 C115.192332,39.4016636 114.723003,38.921335 114.129,38.584 C113.534997,38.246665 112.864004,38.078 112.116,38.078 C111.382663,38.078 110.719003,38.2503316 110.125,38.595 C109.530997,38.9396684 109.061668,39.4199969 108.717,40.036 C108.372332,40.6520031 108.2,41.3633293 108.2,42.17 C108.2,42.9766707 108.368665,43.6916636 108.706,44.315 C109.043335,44.9383365 109.512664,45.4223316 110.114,45.767 C110.715336,46.1116684 111.382663,46.284 112.116,46.284 Z M131.828,48.176 C130.669328,48.176 129.551005,47.9963351 128.473,47.637 C127.394995,47.2776649 126.548003,46.8120029 125.932,46.24 L126.746,44.524 C127.33267,45.0520026 128.084329,45.4809984 129.001,45.811 C129.917671,46.1410016 130.859995,46.306 131.828,46.306 C133.104006,46.306 134.05733,46.0896688 134.688,45.657 C135.31867,45.2243312 135.634,44.6486703 135.634,43.93 C135.634,43.4019974 135.461668,42.9730017 135.117,42.643 C134.772332,42.3129984 134.347003,42.0600009 133.841,41.884 C133.334997,41.7079991 132.620005,41.5100011 131.696,41.29 C130.537328,41.0113319 129.602337,40.7326681 128.891,40.454 C128.179663,40.1753319 127.571003,39.7463362 127.065,39.167 C126.558997,38.5876638 126.306,37.8066716 126.306,36.824 C126.306,36.0026626 126.522331,35.2620033 126.955,34.602 C127.387669,33.9419967 128.043996,33.414002 128.924,33.018 C129.804004,32.621998 130.89666,32.424 132.202,32.424 C133.111338,32.424 134.005996,32.5413322 134.886,32.776 C135.766004,33.0106678 136.52133,33.3479978 137.152,33.788 L136.426,35.548 C135.780663,35.1373313 135.091337,34.8256677 134.358,34.613 C133.624663,34.4003323 132.906004,34.294 132.202,34.294 C130.955327,34.294 130.020336,34.5213311 129.397,34.976 C128.773664,35.4306689 128.462,36.0173297 128.462,36.736 C128.462,37.2640026 128.637998,37.6929983 128.99,38.023 C129.342002,38.3530016 129.778331,38.6096658 130.299,38.793 C130.819669,38.9763343 131.527329,39.1706656 132.422,39.376 C133.580672,39.6546681 134.511996,39.9333319 135.216,40.212 C135.920004,40.4906681 136.524997,40.9159971 137.031,41.488 C137.537003,42.0600029 137.79,42.8299952 137.79,43.798 C137.79,44.6046707 137.570002,45.3416633 137.13,46.009 C136.689998,46.6763367 136.022671,47.2043314 135.128,47.593 C134.233329,47.9816686 133.13334,48.176 131.828,48.176 Z M147.25,47.318 C146.941998,47.5820013 146.560669,47.783666 146.106,47.923 C145.651331,48.062334 145.182002,48.132 144.698,48.132 C143.524661,48.132 142.615337,47.8166698 141.97,47.186 C141.324663,46.5553302 141.002,45.6533392 141.002,44.48 L141.002,38.078 L139.022,38.078 L139.022,36.34 L141.002,36.34 L141.002,33.788 L143.114,33.788 L143.114,36.34 L146.458,36.34 L146.458,38.078 L143.114,38.078 L143.114,44.392 C143.114,45.0226698 143.271665,45.506665 143.587,45.844 C143.902335,46.181335 144.35333,46.35 144.94,46.35 C145.585337,46.35 146.135331,46.1666685 146.59,45.8 L147.25,47.318 Z M154.4,48.132 C153.241328,48.132 152.200005,47.8753359 151.276,47.362 C150.351995,46.8486641 149.629669,46.1410045 149.109,45.239 C148.588331,44.3369955 148.328,43.3140057 148.328,42.17 C148.328,41.0259943 148.588331,40.0030045 149.109,39.101 C149.629669,38.1989955 150.351995,37.4950025 151.276,36.989 C152.200005,36.4829975 153.241328,36.23 154.4,36.23 C155.558672,36.23 156.596329,36.4829975 157.513,36.989 C158.429671,37.4950025 159.148331,38.1989955 159.669,39.101 C160.189669,40.0030045 160.45,41.0259943 160.45,42.17 C160.45,43.3140057 160.189669,44.3369955 159.669,45.239 C159.148331,46.1410045 158.429671,46.8486641 157.513,47.362 C156.596329,47.8753359 155.558672,48.132 154.4,48.132 Z M154.4,46.284 C155.148004,46.284 155.818997,46.1116684 156.413,45.767 C157.007003,45.4223316 157.472665,44.9383365 157.81,44.315 C158.147335,43.6916636 158.316,42.9766707 158.316,42.17 C158.316,41.3633293 158.147335,40.6483365 157.81,40.025 C157.472665,39.4016636 157.007003,38.921335 156.413,38.584 C155.818997,38.246665 155.148004,38.078 154.4,38.078 C153.651996,38.078 152.981003,38.246665 152.387,38.584 C151.792997,38.921335 151.323668,39.4016636 150.979,40.025 C150.634332,40.6483365 150.462,41.3633293 150.462,42.17 C150.462,42.9766707 150.634332,43.6916636 150.979,44.315 C151.323668,44.9383365 151.792997,45.4223316 152.387,45.767 C152.981003,46.1116684 153.651996,46.284 154.4,46.284 Z M165.4,38.298 C165.766668,37.62333 166.30933,37.1100018 167.028,36.758 C167.74667,36.4059982 168.619328,36.23 169.646,36.23 L169.646,38.276 C169.528666,38.2613333 169.367334,38.254 169.162,38.254 C168.017994,38.254 167.11967,38.5949966 166.467,39.277 C165.81433,39.9590034 165.488,40.9306604 165.488,42.192 L165.488,48 L163.376,48 L163.376,36.34 L165.4,36.34 L165.4,38.298 Z M182.67,42.236 C182.67,42.3973341 182.655333,42.6099987 182.626,42.874 L173.166,42.874 C173.298001,43.9006718 173.748996,44.7256636 174.519,45.349 C175.289004,45.9723365 176.245994,46.284 177.39,46.284 C178.78334,46.284 179.905329,45.8146714 180.756,44.876 L181.922,46.24 C181.393997,46.8560031 180.737671,47.3253317 179.953,47.648 C179.168329,47.9706683 178.292005,48.132 177.324,48.132 C176.091994,48.132 174.999338,47.8790025 174.046,47.373 C173.092662,46.8669975 172.355669,46.1593379 171.835,45.25 C171.314331,44.3406621 171.054,43.3140057 171.054,42.17 C171.054,41.040661 171.306997,40.0213379 171.813,39.112 C172.319003,38.2026621 173.015662,37.4950025 173.903,36.989 C174.790338,36.4829975 175.791328,36.23 176.906,36.23 C178.020672,36.23 179.014329,36.4829975 179.887,36.989 C180.759671,37.4950025 181.441664,38.2026621 181.933,39.112 C182.424336,40.0213379 182.67,41.0626608 182.67,42.236 Z M176.906,38.012 C175.893995,38.012 175.047003,38.3199969 174.365,38.936 C173.682997,39.5520031 173.283334,40.3586617 173.166,41.356 L180.646,41.356 C180.528666,40.3733284 180.129003,39.5703364 179.447,38.947 C178.764997,38.3236635 177.918005,38.012 176.906,38.012 Z" fill="#FFFFFF"></path>
        </g>
    </g>
</svg>