<?xml version="1.0" encoding="UTF-8"?>
<svg width="210px" height="65px" viewBox="0 0 210 65" version="1.1" xmlns="http://www.w3.org/2000/svg" xmlns:xlink="http://www.w3.org/1999/xlink">
    <!-- Generator: Sketch 51.3 (57544) - http://www.bohemiancoding.com/sketch -->
    <title>App Store - Hover</title>
    <desc>Created with Sketch.</desc>
    <defs></defs>
    <g id="App-Store---Hover" stroke="none" stroke-width="1" fill="none" fill-rule="evenodd">
        <g id="App-Store">
            <rect id="Dark-Grey" fill="#364B7F" x="0" y="0" width="210" height="65" rx="10"></rect>
            <path d="M51.3357996,47.7046743 C49.581044,50.2593981 47.7659107,52.7984076 44.9000774,52.8516267 C42.0796329,52.9048457 41.175444,51.1884267 37.9570551,51.1884267 C34.7352885,51.1884267 33.727444,52.7984076 31.0644674,52.9048457 C28.2977929,53.0079314 26.1940496,50.1456267 24.4248329,47.6024267 C20.8103785,42.4024648 18.051684,32.8995124 21.7618351,26.4863657 C23.5990929,23.3014571 26.891244,21.286341 30.4587896,21.2331429 C33.1758107,21.18336 35.7424996,23.0568171 37.402044,23.0568171 C39.0641218,23.0568171 42.1794885,20.8075162 45.4546663,21.1374324 C46.8256218,21.1938152 50.6733329,21.6874114 53.1443885,25.28724 C52.9491107,25.4150286 48.5516663,27.9620838 48.6052885,33.2684838 C48.6591218,39.6072076 54.1845329,41.714179 54.2487107,41.7428838 C54.1986774,41.8918552 53.3654218,44.7508076 51.3357996,47.7046743 Z M39.3030996,14.1742229 C40.8199329,12.4046476 43.3828218,11.08844 45.497944,11 C45.7681663,13.4580286 44.7748885,15.9194514 43.3078774,17.6931124 C41.8379107,19.4635886 39.4316663,20.8427581 37.0701774,20.6586076 C36.7492885,18.2537771 37.9395329,15.7457352 39.3030996,14.1742229 Z" id="logo" fill="#FFFFFF" fill-rule="nonzero"></path>
            <text id="Download-on-the" font-family="Montserrat-Medium, Montserrat" font-size="12" font-weight="400" fill="#FFFFFF">
                <tspan x="73" y="24">Download on the</tspan>
            </text>
            <text font-family="Montserrat-Medium, Montserrat" font-size="22" font-weight="400" fill="#FFFFFF">
                <tspan x="73" y="48">App Store</tspan>
            </text>
        </g>
    </g>
</svg>