<?xml version="1.0" encoding="UTF-8"?>
<svg width="260px" height="260px" viewBox="0 0 260 260" version="1.1" xmlns="http://www.w3.org/2000/svg" xmlns:xlink="http://www.w3.org/1999/xlink">
    <!-- Generator: Sketch 51.2 (57519) - http://www.bohemiancoding.com/sketch -->
    <title>Artboard Copy 3</title>
    <desc>Created with Sketch.</desc>
    <defs>
        <linearGradient x1="50%" y1="0%" x2="50%" y2="144.737257%" id="linearGradient-1">
            <stop stop-color="#4C7CF3" offset="0%"></stop>
            <stop stop-color="#53A0FD" offset="47.5247532%"></stop>
            <stop stop-color="#51ECBC" offset="100%"></stop>
        </linearGradient>
        <path d="M56.3253424,172.930083 L78.8407453,172.930083 L66.7071219,82.2048335 L28.816373,82.2048335 L16.6847934,172.930083 L39.3971292,172.930083 L39.3971292,166.055689 C39.3971292,161.389854 43.1923353,157.588517 47.8622577,157.588517 C52.5280926,157.588517 56.3253424,161.38781 56.3253424,166.055689 L56.3253424,172.930083 Z M39.3971292,64.9122752 L39.3971292,58.1377259 C39.3971292,53.471891 43.1923353,49.6746411 47.8622577,49.6746411 C52.5280926,49.6746411 56.3253424,53.471891 56.3253424,58.1377259 L56.3253424,64.9122752 L63.4826155,64.9122752 L63.4826155,40.7925769 L33.3886954,40.7925769 L33.3886954,64.9122752 L39.3971292,64.9122752 Z M51.3763851,11.3319615 C64.6674374,12.9237157 75.0152657,23.9299822 75.5270716,37.6901952 C75.5577275,38.5015559 75.2532118,39.2904356 74.6911861,39.8749423 C74.125073,40.4635364 73.3504994,40.7925769 72.5350513,40.7925769 L69.4625687,40.7925769 L69.4625687,65.0909091 L76.0865649,65.0909091 C77.7399422,65.0909091 79.0785852,66.4295521 79.0785852,68.0808857 L79.0785852,79.0393644 C79.0765414,80.6927417 77.7378985,82.029341 76.0845211,82.029341 L72.7159835,82.029341 L84.8843029,173.004785 L93.5415091,173.004785 C95.1948864,173.004785 96.5314857,174.341384 96.5314857,175.994761 C96.529442,177.650182 95.1928427,178.988825 93.5394654,178.988825 L2.98997657,178.988825 C1.33659923,178.988825 0,177.652226 0,175.994761 C0,174.341384 1.33659923,173.004785 2.98997657,173.004785 L10.6413821,173.004785 L22.8075861,82.029341 L19.2647476,82.029341 C17.6113702,82.029341 16.2727273,80.6927417 16.2727273,79.0393644 L16.2727273,68.0808857 C16.2727273,66.4275083 17.6113702,65.0909091 19.2647476,65.0909091 L27.4066986,65.0909091 L27.4066986,40.7925769 L23.54685,40.7925769 C22.737533,40.7925769 21.958872,40.4635364 21.3907151,39.876986 C20.8327769,39.2924793 20.5282612,38.5015559 20.5568734,37.6881515 C21.0888641,23.6969888 31.783589,12.5519692 45.3923445,11.2592685 L45.3923445,2.98997657 C45.3923445,1.33659923 46.7309875,0 48.3843648,0 C50.0377421,0 51.3763851,1.33864296 51.3763851,2.98997657 L51.3763851,11.3319615 Z M22.2547242,76.0493878 L73.0965883,76.0493878 L73.0965883,71.072906 L22.2547242,71.072906 L22.2547242,76.0493878 Z M26.8719982,34.8126238 L69.2160342,34.8126238 C67.3868961,24.6716369 58.6172519,17.1159682 48.0470818,17.1159682 C37.4769117,17.1159682 28.7052238,24.6716369 26.8719982,34.8126238 Z M45.3791261,65.0005703 L50.3453893,65.0005703 L50.3453893,58.1377259 C50.3453893,56.768427 49.2274691,55.656638 47.8622577,55.656638 C46.4950025,55.656638 45.3791261,56.768427 45.3791261,58.1377259 L45.3791261,65.0005703 Z M53.3333221,106.953859 L42.3891495,106.953859 C40.7337284,106.953859 39.3971292,105.61726 39.3971292,103.963882 L39.3971292,94.1090178 C39.3971292,89.4431828 43.1923353,85.645933 47.8622577,85.645933 C52.5280926,85.645933 56.3253424,89.4431828 56.3253424,94.1090178 L56.3253424,103.963882 C56.3232987,105.615216 54.9866995,106.953859 53.3333221,106.953859 Z M45.3791261,100.973906 L50.3453893,100.973906 L50.3453893,94.1090178 C50.3453893,92.7397189 49.2274691,91.6258862 47.8622577,91.6258862 C46.4950025,91.6258862 45.3791261,92.7397189 45.3791261,94.1090178 L45.3791261,100.973906 Z M53.3333221,142.925151 L42.3891495,142.925151 C40.7337284,142.925151 39.3971292,141.588552 39.3971292,139.935174 L39.3971292,130.08031 C39.3971292,125.414475 43.1923353,121.617225 47.8622577,121.617225 C52.5280926,121.617225 56.3253424,125.412431 56.3253424,130.08031 L56.3253424,139.935174 C56.3232987,141.588552 54.9866995,142.925151 53.3333221,142.925151 Z M45.3791261,136.94111 L50.3453893,136.94111 L50.3453893,130.08031 C50.3453893,128.711011 49.2274691,127.597178 47.8622577,127.597178 C46.4950025,127.597178 45.3791261,128.711011 45.3791261,130.08031 L45.3791261,136.94111 Z M45.3791261,172.91649 L50.3453893,172.91649 L50.3453893,166.055689 C50.3453893,164.68639 49.2274691,163.572557 47.8622577,163.572557 C46.4950025,163.572557 45.3791261,164.68639 45.3791261,166.055689 L45.3791261,172.91649 Z" id="path-2"></path>
        <filter x="-28.0%" y="-15.1%" width="155.9%" height="130.2%" filterUnits="objectBoundingBox" id="filter-3">
            <feOffset dx="0" dy="0" in="SourceAlpha" result="shadowOffsetOuter1"></feOffset>
            <feGaussianBlur stdDeviation="9" in="shadowOffsetOuter1" result="shadowBlurOuter1"></feGaussianBlur>
            <feColorMatrix values="0 0 0 0 0.292093217   0 0 0 0 0.99387747   0 0 0 0 0.99262172  0 0 0 1 0" type="matrix" in="shadowBlurOuter1"></feColorMatrix>
        </filter>
        <filter x="-20.7%" y="-11.2%" width="141.4%" height="122.3%" filterUnits="objectBoundingBox" id="filter-4">
            <feGaussianBlur stdDeviation="2" in="SourceAlpha" result="shadowBlurInner1"></feGaussianBlur>
            <feOffset dx="0" dy="0" in="shadowBlurInner1" result="shadowOffsetInner1"></feOffset>
            <feComposite in="shadowOffsetInner1" in2="SourceAlpha" operator="arithmetic" k2="-1" k3="1" result="shadowInnerInner1"></feComposite>
            <feColorMatrix values="0 0 0 0 0.298039216   0 0 0 0 0.48627451   0 0 0 0 0.952941176  0 0 0 1 0" type="matrix" in="shadowInnerInner1"></feColorMatrix>
        </filter>
    </defs>
    <g id="Artboard-Copy-3" stroke="none" stroke-width="1" fill="none" fill-rule="evenodd">
        <rect id="Rectangle" fill="url(#linearGradient-1)" x="0" y="0" width="260" height="260" rx="20"></rect>
        <g id="Group-2" transform="translate(43.000000, 41.000000)" fill-rule="nonzero">
            <g id="Group" transform="translate(38.540670, 0.000000)">
                <g id="Combined-Shape">
                    <use fill="black" fill-opacity="1" filter="url(#filter-3)" xlink:href="#path-2"></use>
                    <use fill="#4AFDFD" xlink:href="#path-2"></use>
                    <use fill="black" fill-opacity="1" filter="url(#filter-4)" xlink:href="#path-2"></use>
                </g>
            </g>
            <path d="M122.036241,53.7808016 C120.834528,53.7808016 119.700258,53.0511901 119.24655,51.8596957 C118.655912,50.3187235 119.426398,48.5876844 120.969414,47.9990903 L169.765504,29.3194007 C171.298302,28.726719 173.039559,29.4972051 173.628154,31.0422648 C174.216748,32.5852807 173.446262,34.3142761 171.905289,34.904914 L123.107155,53.5846036 C122.755634,53.717446 122.393893,53.7808016 122.036241,53.7808016 Z" id="Shape" fill="#FFFFFF"></path>
            <path d="M2.98935832,74.3349916 C1.78560152,74.3349916 0.651331526,73.60538 0.197623529,72.4138856 C-0.390970629,70.8729134 0.379515474,69.1439181 1.92048768,68.5532802 L50.7186221,49.8735906 C52.2555069,49.2829527 53.9906334,50.0513951 54.5792275,51.5964547 C55.1698654,53.1374269 54.3993793,54.868466 52.8563634,55.4570602 L4.06027269,74.1367498 C3.70670745,74.2695922 3.34496729,74.3349916 2.98935832,74.3349916 Z" id="Shape" fill="#FFFFFF"></path>
            <path d="M170.834375,73.4785322 C170.478766,73.4785322 170.114982,73.4151766 169.765504,73.2802904 L120.969414,54.6006008 C119.426398,54.0099629 118.655912,52.2809676 119.24655,50.7399954 C119.835144,49.1949357 121.57027,48.4264934 123.107155,49.0171313 L171.905289,67.6968209 C173.446262,68.2874587 174.216748,70.0164541 173.628154,71.5574263 C173.172402,72.7489207 172.038132,73.4785322 170.834375,73.4785322 Z" id="Shape" fill="#FFFFFF"></path>
            <path d="M51.7874928,54.6393047 C51.4298401,54.6393047 51.0680999,54.5739053 50.7186221,54.4410629 L1.92048768,35.7613733 C0.379515474,35.1707354 -0.390970629,33.4417401 0.197623529,31.8987241 C0.786217687,30.3536645 2.52338795,29.5831784 4.06027269,30.17586 L52.8563634,48.8555496 C54.3993793,49.4461875 55.1698654,51.1751828 54.5792275,52.716155 C54.1214321,53.9096932 52.9892058,54.6393047 51.7874928,54.6393047 Z" id="Shape" fill="#FFFFFF"></path>
        </g>
    </g>
</svg>