<?xml version="1.0" encoding="UTF-8"?>
<svg width="33px" height="31px" viewBox="0 0 33 31" version="1.1" xmlns="http://www.w3.org/2000/svg" xmlns:xlink="http://www.w3.org/1999/xlink">
    <!-- Generator: Sketch 51.2 (57519) - http://www.bohemiancoding.com/sketch -->
    <title>Instagram</title>
    <desc>Created with Sketch.</desc>
    <defs></defs>
    <g id="Page-1" stroke="none" stroke-width="1" fill="none" fill-rule="evenodd">
        <g id="CLOUD-Web-(D)" transform="translate(-1244.000000, -3094.000000)" fill="#FFFFFF">
            <g id="Footer" transform="translate(0.000000, 3061.000000)">
                <g id="Lowest-footer">
                    <g id="Socials" transform="translate(1244.000000, 33.000000)">
                        <g id="Instagram">
                            <path d="M0,15.5 C0,6.93958595 7.38730118,0 16.5,0 C25.6126988,0 33,6.93958595 33,15.5 C33,24.060414 25.6126988,31 16.5,31 C7.38730118,31 0,24.060414 0,15.5 Z M16.500825,7.23333333 C14.1108668,7.23333333 13.8109303,7.2431501 12.8722539,7.2832783 C11.9354108,7.32357872 11.2959375,7.46290795 10.7363983,7.66733785 C10.1576089,7.8784845 9.66663715,8.16093188 9.17749872,8.62059778 C8.68799362,9.08009146 8.38732383,9.54130737 8.16182148,10.0848464 C7.94365254,10.6106463 7.79515099,11.2115359 7.75298389,12.0912562 C7.71100011,12.9730431 7.7,13.2549738 7.7,15.5000861 C7.7,17.7451984 7.71063344,18.0260958 7.75316722,18.9078827 C7.796251,19.7879474 7.94456921,20.3886648 8.16200481,20.9142925 C8.38695716,21.4580037 8.68762695,21.9192196 9.17694872,22.3787133 C9.66590381,22.8385514 10.1568756,23.1216877 10.7352983,23.3328344 C11.2952041,23.5372643 11.9348608,23.6765935 12.8715205,23.7168939 C13.810197,23.7570221 14.1099501,23.7668389 16.499725,23.7668389 C18.8898666,23.7668389 19.1888863,23.7570221 20.1275628,23.7168939 C21.0644059,23.6765935 21.7046125,23.5372643 22.2645184,23.3328344 C22.8431244,23.1216877 23.3333628,22.8385514 23.8223179,22.3787133 C24.311823,21.9192196 24.6124928,21.4580037 24.8379952,20.9144647 C25.0543308,20.3886648 25.2028323,19.7877752 25.2468328,18.9080549 C25.2889999,18.026268 25.3,17.7451984 25.3,15.5000861 C25.3,13.2549738 25.2889999,12.9732153 25.2468328,12.0914284 C25.2028323,11.2113637 25.0543308,10.6106463 24.8379952,10.0850186 C24.6124928,9.54130737 24.311823,9.08009146 23.8223179,8.62059778 C23.3328128,8.16075966 22.8433077,7.87831227 22.2639684,7.66733785 C21.7029625,7.46290795 21.0631225,7.32357872 20.1262794,7.2832783 C19.187603,7.2431501 18.8887665,7.23333333 16.498075,7.23333333 L16.500825,7.23333333 Z" id="Combined-Shape"></path>
                            <path d="M15.7113835,8.72307107 C15.9456859,8.72272663 16.2071219,8.72307107 16.500825,8.72307107 C18.8504495,8.72307107 19.1289357,8.73099338 20.0567954,8.7706049 C20.9148043,8.80746084 21.3804758,8.94214002 21.6906791,9.0552912 C22.10135,9.2051261 22.3941364,9.38423907 22.7019563,9.67357542 C23.0099595,9.96291177 23.2006281,10.2384702 23.3604965,10.624252 C23.4809477,10.9153106 23.6244992,11.3527596 23.6635496,12.158768 C23.7057167,13.0302215 23.7148835,13.292002 23.7148835,15.4981916 C23.7148835,17.7043813 23.7057167,17.9661618 23.6635496,18.8376153 C23.6243159,19.6436237 23.4809477,20.0810727 23.3604965,20.3721313 C23.2009948,20.7579131 23.0099595,21.0326104 22.7019563,21.3217745 C22.3939531,21.6111109 22.1015333,21.7902239 21.6906791,21.9400588 C21.3808425,22.0537266 20.9148043,22.1880613 20.0567954,22.2249173 C19.1291191,22.2645288 18.8504495,22.27314 16.500825,22.27314 C14.1510172,22.27314 13.872531,22.2645288 12.9448546,22.2249173 C12.0868457,22.1877169 11.6211742,22.0530377 11.3107876,21.9398865 C10.9001167,21.7900516 10.6067803,21.6109387 10.2987771,21.3216023 C9.99077386,21.032266 9.80010521,20.7573964 9.64023688,20.3714424 C9.51978562,20.0803838 9.37623413,19.6429348 9.33718372,18.8369264 C9.29501661,17.9654729 9.28658319,17.7036924 9.28658319,15.496125 C9.28658319,13.2885575 9.29501661,13.0281548 9.33718372,12.1567013 C9.37641746,11.3506929 9.51978562,10.9132439 9.64023688,10.6218409 C9.79973854,10.2360591 9.99077386,9.96050063 10.2987771,9.67116428 C10.6067803,9.38182794 10.9001167,9.20271496 11.3107876,9.05253562 C11.6209908,8.93886777 12.0868457,8.80453303 12.9448546,8.76750487 C13.7566631,8.73306007 14.0712664,8.72272663 15.7113835,8.72100439 L15.7113835,8.72307107 Z M21.1982406,10.0956965 C20.6152345,10.0956965 20.1422296,10.5395178 20.1422296,11.0873624 C20.1422296,11.6350347 20.6152345,12.0793727 21.1982406,12.0793727 C21.7812467,12.0793727 22.2542516,11.6350347 22.2542516,11.0873624 C22.2542516,10.53969 21.7812467,10.095352 21.1982406,10.095352 L21.1982406,10.0956965 Z M16.500825,11.2547641 C14.0050823,11.2547641 11.9816113,13.1556006 11.9816113,15.5000861 C11.9816113,17.8445716 14.0050823,19.744547 16.500825,19.744547 C18.9965677,19.744547 21.0193054,17.8445716 21.0193054,15.5000861 C21.0193054,13.1556006 18.9963843,11.2547641 16.5006417,11.2547641 L16.500825,11.2547641 Z" id="Combined-Shape"></path>
                            <path d="M16.500825,12.7445019 C18.1207752,12.7445019 19.4341889,13.9781425 19.4341889,15.5000861 C19.4341889,17.0218575 18.1207752,18.2556704 16.500825,18.2556704 C14.8806915,18.2556704 13.5674611,17.0218575 13.5674611,15.5000861 C13.5674611,13.9781425 14.8806915,12.7445019 16.500825,12.7445019 L16.500825,12.7445019 Z" id="Shape"></path>
                        </g>
                    </g>
                </g>
            </g>
        </g>
    </g>
</svg>