<?xml version="1.0" encoding="UTF-8"?>
<svg width="193px" height="26px" viewBox="0 0 193 26" version="1.1" xmlns="http://www.w3.org/2000/svg" xmlns:xlink="http://www.w3.org/1999/xlink">
    <!-- Generator: Sketch 51.3 (57544) - http://www.bohemiancoding.com/sketch -->
    <title>Group</title>
    <desc>Created with Sketch.</desc>
    <defs></defs>
    <g id="Page-1" stroke="none" stroke-width="1" fill="none" fill-rule="evenodd">
        <g id="CLOUD-Web-(D)" transform="translate(-120.000000, -58.000000)">
            <g id="Group" transform="translate(120.000000, 58.000000)">
                <path d="M29.9582936,15.7452045 L27.0258386,12.8123904 C27.9847123,11.8538758 28.5127122,10.579028 28.5127122,9.22321194 C28.5127122,6.4243278 26.2353648,4.14698043 23.4364806,4.14698043 C21.341357,4.14698043 19.4882407,5.40513182 18.7155405,7.3519631 L14.8610156,5.82200218 C16.2645869,2.28506719 19.6307881,0 23.4364806,0 C28.5222273,0 32.6596926,4.1374653 32.6596926,9.22321194 C32.6596926,11.6869122 31.7002803,14.0032177 29.9582936,15.7452045 Z M33.8438773,26 L9.22321194,26 C4.13728577,26 0,21.8627142 0,16.7767881 C0,11.6910414 4.13728577,7.55357611 9.22321194,7.55357611 C13.2554722,7.55357611 16.7870213,10.1336123 18.0110619,13.9739542 L14.0599495,15.2333623 C13.3863501,13.1202856 11.4425709,11.7005565 9.22321194,11.7005565 C6.42414826,11.7005565 4.1468009,13.9779039 4.1468009,16.7767881 C4.1468009,19.5756722 6.42414826,21.8530196 9.22321194,21.8530196 L33.8438773,21.8530196 L33.8438773,26 Z M39.3337476,26 L37.9052216,26 L37.9052216,21.8530196 L39.3337476,21.8530196 C42.1326318,21.8530196 44.4101587,19.5756722 44.4101587,16.7767881 C44.4101587,13.9779039 42.1326318,11.7005565 39.3337476,11.7005565 C38.6386046,11.7005565 37.9660825,11.8380771 37.335032,12.108989 L35.6993275,8.29791054 C36.850299,7.80402149 38.0730828,7.55357611 39.3337476,7.55357611 C44.4196738,7.55357611 48.5569596,11.6910414 48.5569596,16.7767881 C48.5569596,21.8627142 44.4196738,26 39.3337476,26 Z" id="Combined-Shape" fill="#4AFDFD"></path>
                <path d="M180.357435,20.57876 C183.902131,20.57876 186.79674,18.5300644 186.79674,13.9119774 C186.79674,9.29389045 183.902131,7.21284697 180.357435,7.21284697 L177.989783,7.21284697 C177.728566,7.21284697 177.517088,7.42432523 177.517088,7.6851948 L177.517088,20.1060644 C177.517088,20.3669339 177.728566,20.57876 177.989783,20.57876 L180.357435,20.57876 Z M172.227001,24.9516296 L172.227001,2.83962958 C172.227001,2.57841219 172.438479,2.36693393 172.699696,2.36693393 L180.584914,2.36693393 C187.51187,2.36693393 192.162305,6.78989045 192.162305,13.9119774 C192.162305,21.0340644 187.51187,25.4243252 180.552566,25.4243252 L172.699696,25.4243252 C172.438479,25.4243252 172.227001,25.212847 172.227001,24.9516296 Z M157.081261,25.89076 C151.600566,25.9839774 147.115001,21.3811948 147.115001,15.8998035 L147.115001,2.84206437 C147.115001,2.58084697 147.326479,2.36936871 147.587348,2.36936871 L152.018653,2.36936871 C152.27987,2.36936871 152.491696,2.58084697 152.491696,2.84206437 L152.491696,15.9665861 C152.491696,18.3443252 154.314653,20.3926731 156.689261,20.5098905 C159.227348,20.6351078 161.332392,18.6062383 161.332392,16.0949339 L161.332392,2.84206437 C161.332392,2.58084697 161.54387,2.36936871 161.80474,2.36936871 L166.236044,2.36936871 C166.497261,2.36936871 166.709088,2.58084697 166.709088,2.84206437 L166.709088,16.0949339 C166.709088,21.4406731 162.405783,25.7999774 157.081261,25.89076 Z M130.543175,2.06710784 C137.12474,2.06710784 142.460044,7.40241219 142.460044,13.9839774 C142.460044,20.5655426 137.12474,25.900847 130.543175,25.900847 C123.961609,25.900847 118.626305,20.5655426 118.626305,13.9839774 C118.626305,7.40241219 123.961609,2.06710784 130.543175,2.06710784 Z M130.543175,7.44415132 C134.149435,7.44415132 137.083348,10.3780644 137.083348,13.9839774 C137.083348,17.5898905 134.149435,20.5241513 130.543175,20.5241513 C126.937261,20.5241513 124.003348,17.5898905 124.003348,13.9839774 C124.003348,10.3780644 126.937261,7.44415132 130.543175,7.44415132 Z M83.9584789,25.916847 C77.2694354,25.916847 71.8457832,20.3971948 72.0033484,13.6733687 C72.1490876,7.43128176 77.1974354,2.27615132 83.4356963,2.01110784 C88.7163919,1.78676002 93.4228267,4.9798035 95.1967398,9.86710784 C95.2871745,10.1161513 95.1452615,10.3902383 94.8927398,10.4705861 L90.6635224,11.81876 C90.4294354,11.8935426 90.1741311,11.7770209 90.0843919,11.5478035 C89.0186528,8.82884697 86.2833484,7.1091948 83.2770876,7.41076002 C80.2141311,7.71823828 77.7390006,10.1829339 77.4144789,13.2434557 C76.9960441,17.1912818 80.0934354,20.5398035 83.9584789,20.5398035 C86.6899571,20.5398035 89.0993484,18.8813687 90.0840441,16.3700644 C90.1737832,16.1404991 90.4287398,16.0229339 90.6635224,16.0977165 L94.8930876,17.4458905 C95.1452615,17.5262383 95.2871745,17.7999774 95.1967398,18.0490209 C93.4816093,22.7749339 89.0249137,25.916847 83.9584789,25.916847 Z M114.811696,25.5718035 L100.662827,25.5718035 C100.401957,25.5718035 100.190479,25.3603252 100.190479,25.0991078 L100.190479,2.89771654 C100.190479,2.63649915 100.401957,2.42502089 100.662827,2.42502089 L105.094131,2.42502089 C105.355348,2.42502089 105.567175,2.63649915 105.567175,2.89771654 L105.567175,19.7224122 C105.567175,19.9832818 105.778653,20.1951078 106.039522,20.1951078 L114.811696,20.1951078 C115.072914,20.1951078 115.284392,20.4065861 115.284392,20.6678035 L115.284392,25.0991078 C115.284392,25.3603252 115.072914,25.5718035 114.811696,25.5718035 Z" id="Logotype" fill="#FFFFFF"></path>
            </g>
        </g>
    </g>
</svg>