<?xml version="1.0" encoding="UTF-8"?>
<svg width="49px" height="26px" viewBox="0 0 49 26" version="1.1" xmlns="http://www.w3.org/2000/svg" xmlns:xlink="http://www.w3.org/1999/xlink">
    <!-- Generator: Sketch 52.1 (67048) - http://www.bohemiancoding.com/sketch -->
    <title>Combined Shape</title>
    <desc>Created with Sketch.</desc>
    <g id="Page-1" stroke="none" stroke-width="1" fill="none" fill-rule="evenodd">
        <g id="CLOUD-Web-(D)" transform="translate(-120.000000, -58.000000)" fill="#4AFDFD">
            <path d="M149.958294,73.7452045 L147.025839,70.8123904 C147.984712,69.8538758 148.512712,68.579028 148.512712,67.2232119 C148.512712,64.4243278 146.235365,62.1469804 143.436481,62.1469804 C141.341357,62.1469804 139.488241,63.4051318 138.71554,65.3519631 L134.861016,63.8220022 C136.264587,60.2850672 139.630788,58 143.436481,58 C148.522227,58 152.659693,62.1374653 152.659693,67.2232119 C152.659693,69.6869122 151.70028,72.0032177 149.958294,73.7452045 Z M153.843877,84 L129.223212,84 C124.137286,84 120,79.8627142 120,74.7767881 C120,69.6910414 124.137286,65.5535761 129.223212,65.5535761 C133.255472,65.5535761 136.787021,68.1336123 138.011062,71.9739542 L134.059949,73.2333623 C133.38635,71.1202856 131.442571,69.7005565 129.223212,69.7005565 C126.424148,69.7005565 124.146801,71.9779039 124.146801,74.7767881 C124.146801,77.5756722 126.424148,79.8530196 129.223212,79.8530196 L153.843877,79.8530196 L153.843877,84 Z M159.333748,84 L157.905222,84 L157.905222,79.8530196 L159.333748,79.8530196 C162.132632,79.8530196 164.410159,77.5756722 164.410159,74.7767881 C164.410159,71.9779039 162.132632,69.7005565 159.333748,69.7005565 C158.638605,69.7005565 157.966083,69.8380771 157.335032,70.108989 L155.699327,66.2979105 C156.850299,65.8040215 158.073083,65.5535761 159.333748,65.5535761 C164.419674,65.5535761 168.55696,69.6910414 168.55696,74.7767881 C168.55696,79.8627142 164.419674,84 159.333748,84 Z" id="Combined-Shape"></path>
        </g>
    </g>
</svg>