<?xml version="1.0" encoding="UTF-8"?>
<svg width="210px" height="65px" viewBox="0 0 210 65" version="1.1" xmlns="http://www.w3.org/2000/svg" xmlns:xlink="http://www.w3.org/1999/xlink">
    <!-- Generator: Sketch 51.2 (57519) - http://www.bohemiancoding.com/sketch -->
    <title>Playstore - Hover</title>
    <desc>Created with Sketch.</desc>
    <defs></defs>
    <g id="Playstore---Hover" stroke="none" stroke-width="1" fill="none" fill-rule="evenodd">
        <g id="Playstore">
            <rect id="Dark-Grey" fill="#364B7F" x="0" y="0" width="210" height="65" rx="10"></rect>
            <g id="Group" transform="translate(73.000000, 30.000000)" fill="#FFFFFF">
                <path d="M73.2283061,11.1064645 L65.2383315,14.4085478 C65.2383315,14.4085478 65.7543535,16.2349249 68.1565968,16.2471661 C70.0376427,16.2567513 71.0995039,14.5798866 71.0995039,14.5798866 L73.1266677,15.952742 C73.1266677,15.952742 71.4908577,18.5983456 68.1406294,18.5983456 C64.0236608,18.5983456 62.2103675,14.9983915 62.2103675,12.6604626 C62.2103675,10.4079284 63.6496561,6.59375 67.8851517,6.59375 C72.1206473,6.59375 73.2283061,11.1064645 73.2283061,11.1064645 Z M70.1882897,10.1710325 C70.1882897,10.1710325 69.18304,8.64156996 67.6413424,8.92363664 C64.3801628,9.52029719 64.7905546,12.3741575 64.7905546,12.3741575 L70.1882897,10.1710325 Z" id="Red-e"></path>
                <rect id="Green-l" x="58.4061441" y="0.62745098" width="2.67269031" height="17.6470588"></rect>
                <path d="M54.1836988,6.97311581 L56.6543406,6.99445949 L56.6543406,18.1292126 C56.6543406,20.9741115 54.9605722,23.9771752 50.9730313,23.9771752 C46.9854903,23.9771752 45.6976614,20.4441636 45.6976614,20.4441636 L47.9667153,19.4898897 C47.9667153,19.4898897 48.6587621,21.6672823 51.0909441,21.6672794 C53.8606668,21.6672761 54.1840058,19.1474418 54.1840058,18.2848952 L54.1840058,17.0765165 C54.1840058,17.0765165 53.2256572,18.5764367 50.8452924,18.57644 C48.2644912,18.5764435 45.1976067,16.3652727 45.1976067,12.5956648 C45.1976067,8.82605698 48.0854725,6.66988358 50.8751544,6.59145221 C53.1096639,6.5286294 54.1836988,8.07439332 54.1836988,8.07439332 L54.1836988,6.97311581 Z M51.0562458,16.3137255 C52.8579391,16.3137255 54.3185001,14.6633242 54.3185001,12.627451 C54.3185001,10.5915778 52.8579391,8.94117647 51.0562458,8.94117647 C49.2545524,8.94117647 47.7939914,10.5915778 47.7939914,12.627451 C47.7939914,14.6633242 49.2545524,16.3137255 51.0562458,16.3137255 Z" id="Blue-g"></path>
                <path d="M38.0858369,18.5882353 C34.7646432,18.5882353 32.0722837,15.9019438 32.0722837,12.5882353 C32.0722837,9.2745268 34.7646432,6.58823529 38.0858369,6.58823529 C41.4070306,6.58823529 44.0993901,9.2745268 44.0993901,12.5882353 C44.0993901,15.9019438 41.4070306,18.5882353 38.0858369,18.5882353 Z M38.0465326,16.2352941 C39.9133474,16.2352941 41.4266998,14.6024503 41.4266998,12.5882353 C41.4266998,10.5740203 39.9133474,8.94117647 38.0465326,8.94117647 C36.1797179,8.94117647 34.6663655,10.5740203 34.6663655,12.5882353 C34.6663655,14.6024503 36.1797179,16.2352941 38.0465326,16.2352941 Z" id="Yellow-O"></path>
                <path d="M25.0368195,18.5882353 C21.7156258,18.5882353 19.0232663,15.9019438 19.0232663,12.5882353 C19.0232663,9.2745268 21.7156258,6.58823529 25.0368195,6.58823529 C28.3580132,6.58823529 31.0503727,9.2745268 31.0503727,12.5882353 C31.0503727,15.9019438 28.3580132,18.5882353 25.0368195,18.5882353 Z M24.9975152,16.2352941 C26.86433,16.2352941 28.3776824,14.6024503 28.3776824,12.5882353 C28.3776824,10.5740203 26.86433,8.94117647 24.9975152,8.94117647 C23.1307005,8.94117647 21.6173481,10.5740203 21.6173481,12.5882353 C21.6173481,14.6024503 23.1307005,16.2352941 24.9975152,16.2352941 Z" id="Red-O"></path>
                <g id="Blue-G">
                    <polygon id="Rectangle-1" points="9.43302462 8.47058824 17.372487 8.47058824 17.2938785 10.9803922 9.43302462 10.9803922"></polygon>
                    <path d="M15.8101279,2.56526776 L13.9933566,4.37794448 C12.8601818,3.22195848 11.2507356,2.58823529 9.39372035,2.58823529 C5.68179796,2.58823529 2.67269031,5.59056109 2.67269031,9.29411765 C2.67269031,12.9976742 5.68179796,16 9.39372035,16 C13.1056427,16 15.7410528,13.8589154 15.7355256,9.29411765 C15.7418036,9.01201613 15.7352195,8.73741471 15.7163371,8.47058824 L18.0355052,8.47058824 C18.0357683,8.50162207 18.0359001,8.53271901 18.0359001,8.56387868 C18.9082706,14.9551164 14.5456503,18.6352635 9.31511181,18.5882353 C4.17052257,18.5808752 0,14.4271171 0,9.29411765 C0,4.16111821 4.17051762,0 9.31511181,0 C12.0042161,0 14.2648015,0.937386017 15.8101279,2.56526776 Z" id="Oval-1"></path>
                </g>
            </g>
            <path d="M20,50.2637152 L20,15.7403058 C20,14.5355809 20.6984406,13.4942128 21.7119977,13 L41.6821408,32.9961212 L21.7039662,53 C20.6947493,52.5042845 20,51.4653329 20,50.2637152 Z M48.0177352,39.3396961 L26.1816563,51.9630792 L43.4032451,34.7192455 L48.0177352,39.3396961 Z M54.8052056,30.5817164 C55.531493,31.1383556 56,32.0154533 56,33.0020105 C56,33.9737429 55.5456901,34.839062 54.838062,35.3967166 L50.1998423,38.0781701 L45.1241465,32.9961212 L50.1963944,27.9172809 L54.8052056,30.5817164 Z M26.1944541,14.0418962 L48.0142873,26.6558361 L43.4032451,31.2727938 L26.1944541,14.0418962 Z" id="logo" fill="#FFFFFF" fill-rule="nonzero"></path>
            <text id="Get-it-on-the" font-family="Montserrat-Medium, Montserrat" font-size="12" font-weight="400" fill="#FFFFFF">
                <tspan x="73" y="24">Get it on the</tspan>
            </text>
            <text id="Play" font-family="Montserrat-Medium, Montserrat" font-size="22" font-weight="400" fill="#FFFFFF">
                <tspan x="151" y="48">Play</tspan>
            </text>
        </g>
    </g>
</svg>