<?xml version="1.0" encoding="UTF-8"?>
<svg width="210px" height="65px" viewBox="0 0 210 65" version="1.1" xmlns="http://www.w3.org/2000/svg" xmlns:xlink="http://www.w3.org/1999/xlink">
    <!-- Generator: Sketch 51.2 (57519) - http://www.bohemiancoding.com/sketch -->
    <title>Playstore - Hover</title>
    <desc>Created with Sketch.</desc>
    <defs></defs>
    <g id="Playstore---Hover" stroke="none" stroke-width="1" fill="none" fill-rule="evenodd">
        <g id="Playstore">
            <rect id="Dark-Grey" fill="#364B7F" x="0" y="0" width="210" height="65" rx="10"></rect>
            <g id="Group" transform="translate(73.000000, 30.000000)" fill="#FFFFFF">
                <path d="M73.2283061,11.1064645 L65.2383315,14.4085478 C65.2383315,14.4085478 65.7543535,16.2349249 68.1565968,16.2471661 C70.0376427,16.2567513 71.0995039,14.5798866 71.0995039,14.5798866 L73.1266677,15.952742 C73.1266677,15.952742 71.4908577,18.5983456 68.1406294,18.5983456 C64.0236608,18.5983456 62.2103675,14.9983915 62.2103675,12.6604626 C62.2103675,10.4079284 63.6496561,6.59375 67.8851517,6.59375 C72.1206473,6.59375 73.2283061,11.1064645 73.2283061,11.1064645 Z M70.1882897,10.1710325 C70.1882897,10.1710325 69.18304,8.64156996 67.6413424,8.92363664 C64.3801628,9.52029719 64.7905546,12.3741575 64.7905546,12.3741575 L70.1882897,10.1710325 Z" id="Red-e"></path>
                <rect id="Green-l" x="58.4061441" y="0.62745098" width="2.67269031" height="17.6470588"></rect>
                <path d="M54.1836988,6.97311581 L56.6543406,6.99445949 L56.6543406,18.1292126 C56.6543406,20.9741115 54.9605722,23.9771752 50.9730313,23.9771752 C46.9854903,23.9771752 45.6976614,20.4441636 45.6976614,20.4441636 L47.9667153,19.4898897 C47.9667153,19.4898897 48.6587621,21.6672823 51.0909441,21.6672794 C53.8606668,21.6672761 54.1840058,19.1474418 54.1840058,18.2848952 L54.1840058,17.0765165 C54.1840058,17.0765165 53.2256572,18.5764367 50.8452924,18.57644 C48.2644912,18.5764435 45.1976067,16.3652727 45.1976067,12.5956648 C45.1976067,8.82605698 48.0854725,6.66988358 50.8751544,6.59145221 C53.1096639,6.5286294 54.1836988,8.07439332 54.1836988,8.07439332 L54.1836988,6.97311581 Z M51.0562458,16.3137255 C52.8579391,16.3137255 54.3185001,14.6633242 54.3185001,12.627451 C54.3185001,10.5915778 52.8579391,8.94117647 51.0562458,8.94117647 C49.2545524,8.94117647 47.7939914,10.5915778 47.7939914,12.627451 C47.7939914,14.6633242 49.2545524,16.3137255 51.0562458,16.3137255 Z" id="Blue-g"></path>
                <path d="M38.0858369,18.5882353 C34.7646432,18.5882353 32.0722837,15.9019438 32.0722837,12.5882353 C32.0722837,9.2745268 34.7646432,6.58823529 38.0858369,6.58823529 C41.4070306,6.58823529 44.0993901,9.2745268 44.0993901,12.5882353 C44.0993901,15.9019438 41.4070306,18.5882353 38.0858369,18.5882353 Z M38.0465326,16.2352941 C39.9133474,16.2352941 41.4266998,14.6024503 41.4266998,12.5882353 C41.4266998,10.5740203 39.9133474,8.94117647 38.0465326,8.94117647 C36.1797179,8.94117647 34.6663655,10.5740203 34.6663655,12.5882353 C34.6663655,14.6024503 36.1797179,16.2352941 38.0465326,16.2352941 Z" id="Yellow-O"></path>
                <path d="M25.0368195,18.5882353 C21.7156258,18.5882353 19.0232663,15.9019438 19.0232663,12.5882353 C19.0232663,9.2745268 21.7156258,6.58823529 25.0368195,6.58823529 C28.3580132,6.58823529 31.0503727,9.2745268 31.0503727,12.5882353 C31.0503727,15.9019438 28.3580132,18.5882353 25.0368195,18.5882353 Z M24.9975152,16.2352941 C26.86433,16.2352941 28.3776824,14.6024503 28.3776824,12.5882353 C28.3776824,10.5740203 26.86433,8.94117647 24.9975152,8.94117647 C23.1307005,8.94117647 21.6173481,10.5740203 21.6173481,12.5882353 C21.6173481,14.6024503 23.1307005,16.2352941 24.9975152,16.2352941 Z" id="Red-O"></path>
                <g id="Blue-G">
                    <polygon id="Rectangle-1" points="9.43302462 8.47058824 17.372487 8.47058824 17.2938785 10.9803922 9.43302462 10.9803922"></polygon>
                    <path d="M15.8101279,2.56526776 L13.9933566,4.37794448 C12.8601818,3.22195848 11.2507356,2.58823529 9.39372035,2.58823529 C5.68179796,2.58823529 2.67269031,5.59056109 2.67269031,9.29411765 C2.67269031,12.9976742 5.68179796,16 9.39372035,16 C13.1056427,16 15.7410528,13.8589154 15.7355256,9.29411765 C15.7418036,9.01201613 15.7352195,8.73741471 15.7163371,8.47058824 L18.0355052,8.47058824 C18.0357683,8.50162207 18.0359001,8.53271901 18.0359001,8.56387868 C18.9082706,14.9551164 14.5456503,18.6352635 9.31511181,18.5882353 C4.17052257,18.5808752 0,14.4271171 0,9.29411765 C0,4.16111821 4.17051762,0 9.31511181,0 C12.0042161,0 14.2648015,0.937386017 15.8101279,2.56526776 Z" id="Oval-1"></path>
                </g>
            </g>
            <path d="M20,50.2637152 L20,15.7403058 C20,14.5355809 20.6984406,13.4942128 21.7119977,13 L41.6821408,32.9961212 L21.7039662,53 C20.6947493,52.5042845 20,51.4653329 20,50.2637152 Z M48.0177352,39.3396961 L26.1816563,51.9630792 L43.4032451,34.7192455 L48.0177352,39.3396961 Z M54.8052056,30.5817164 C55.531493,31.1383556 56,32.0154533 56,33.0020105 C56,33.9737429 55.5456901,34.839062 54.838062,35.3967166 L50.1998423,38.0781701 L45.1241465,32.9961212 L50.1963944,27.9172809 L54.8052056,30.5817164 Z M26.1944541,14.0418962 L48.0142873,26.6558361 L43.4032451,31.2727938 L26.1944541,14.0418962 Z" id="logo" fill="#FFFFFF" fill-rule="nonzero"></path>
            <path d="M80.08,19.752 L81.232,19.752 L81.232,23.028 C80.8159979,23.3720017 80.3320028,23.6359991 79.78,23.82 C79.2279972,24.0040009 78.652003,24.096 78.052,24.096 C77.2039958,24.096 76.4400034,23.9100019 75.76,23.538 C75.0799966,23.1659981 74.5460019,22.6540033 74.158,22.002 C73.7699981,21.3499967 73.576,20.6160041 73.576,19.8 C73.576,18.9839959 73.7699981,18.2480033 74.158,17.592 C74.5460019,16.9359967 75.0819966,16.4240018 75.766,16.056 C76.4500034,15.6879982 77.2199957,15.504 78.076,15.504 C78.7480034,15.504 79.3579973,15.6139989 79.906,15.834 C80.4540027,16.0540011 80.9199981,16.3759979 81.304,16.8 L80.56,17.544 C79.8879966,16.8959968 79.0760048,16.572 78.124,16.572 C77.4839968,16.572 76.9100025,16.7099986 76.402,16.986 C75.8939975,17.2620014 75.4960014,17.6459975 75.208,18.138 C74.9199986,18.6300025 74.776,19.1839969 74.776,19.8 C74.776,20.408003 74.9199986,20.9579975 75.208,21.45 C75.4960014,21.9420025 75.8939975,22.3279986 76.402,22.608 C76.9100025,22.8880014 77.4799968,23.028 78.112,23.028 C78.8640038,23.028 79.5199972,22.8480018 80.08,22.488 L80.08,19.752 Z M89.104,20.856 C89.104,20.9440004 89.0960001,21.0599993 89.08,21.204 L83.92,21.204 C83.9920004,21.7640028 84.2379979,22.2139983 84.658,22.554 C85.0780021,22.8940017 85.5999969,23.064 86.224,23.064 C86.9840038,23.064 87.5959977,22.8080026 88.06,22.296 L88.696,23.04 C88.4079986,23.3760017 88.0500021,23.6319991 87.622,23.808 C87.1939979,23.9840009 86.7160026,24.072 86.188,24.072 C85.5159966,24.072 84.9200026,23.9340014 84.4,23.658 C83.8799974,23.3819986 83.4780014,22.9960025 83.194,22.5 C82.9099986,22.0039975 82.768,21.4440031 82.768,20.82 C82.768,20.2039969 82.9059986,19.6480025 83.182,19.152 C83.4580014,18.6559975 83.8379976,18.2700014 84.322,17.994 C84.8060024,17.7179986 85.351997,17.58 85.96,17.58 C86.568003,17.58 87.1099976,17.7179986 87.586,17.994 C88.0620024,18.2700014 88.4339987,18.6559975 88.702,19.152 C88.9700013,19.6480025 89.104,20.2159968 89.104,20.856 Z M85.96,18.552 C85.4079972,18.552 84.9460019,18.7199983 84.574,19.056 C84.2019981,19.3920017 83.9840003,19.8319973 83.92,20.376 L88,20.376 C87.9359997,19.8399973 87.7180019,19.4020017 87.346,19.062 C86.9739981,18.7219983 86.5120028,18.552 85.96,18.552 Z M94.276,23.628 C94.1079992,23.7720007 93.9000012,23.8819996 93.652,23.958 C93.4039988,24.0340004 93.1480013,24.072 92.884,24.072 C92.2439968,24.072 91.7480018,23.9000017 91.396,23.556 C91.0439982,23.2119983 90.868,22.7200032 90.868,22.08 L90.868,18.588 L89.788,18.588 L89.788,17.64 L90.868,17.64 L90.868,16.248 L92.02,16.248 L92.02,17.64 L93.844,17.64 L93.844,18.588 L92.02,18.588 L92.02,22.032 C92.02,22.3760017 92.1059991,22.6399991 92.278,22.824 C92.4500009,23.0080009 92.6959984,23.1 93.016,23.1 C93.3680018,23.1 93.6679988,23.000001 93.916,22.8 L94.276,23.628 Z M98.896,17.64 L100.048,17.64 L100.048,24 L98.896,24 L98.896,17.64 Z M99.472,16.416 C99.2479989,16.416 99.0620007,16.3440007 98.914,16.2 C98.7659993,16.0559993 98.692,15.880001 98.692,15.672 C98.692,15.463999 98.7659993,15.2860007 98.914,15.138 C99.0620007,14.9899993 99.2479989,14.916 99.472,14.916 C99.6960011,14.916 99.8819993,14.9859993 100.03,15.126 C100.178001,15.2660007 100.252,15.439999 100.252,15.648 C100.252,15.8640011 100.178001,16.0459993 100.03,16.194 C99.8819993,16.3420007 99.6960011,16.416 99.472,16.416 Z M105.82,23.628 C105.651999,23.7720007 105.444001,23.8819996 105.196,23.958 C104.947999,24.0340004 104.692001,24.072 104.428,24.072 C103.787997,24.072 103.292002,23.9000017 102.94,23.556 C102.587998,23.2119983 102.412,22.7200032 102.412,22.08 L102.412,18.588 L101.332,18.588 L101.332,17.64 L102.412,17.64 L102.412,16.248 L103.564,16.248 L103.564,17.64 L105.388,17.64 L105.388,18.588 L103.564,18.588 L103.564,22.032 C103.564,22.3760017 103.649999,22.6399991 103.822,22.824 C103.994001,23.0080009 104.239998,23.1 104.56,23.1 C104.912002,23.1 105.211999,23.000001 105.46,22.8 L105.82,23.628 Z M113.164,24.072 C112.531997,24.072 111.964003,23.9320014 111.46,23.652 C110.955997,23.3719986 110.562001,22.9860025 110.278,22.494 C109.993999,22.0019975 109.852,21.4440031 109.852,20.82 C109.852,20.1959969 109.993999,19.6380025 110.278,19.146 C110.562001,18.6539975 110.955997,18.2700014 111.46,17.994 C111.964003,17.7179986 112.531997,17.58 113.164,17.58 C113.796003,17.58 114.361998,17.7179986 114.862,17.994 C115.362003,18.2700014 115.753999,18.6539975 116.038,19.146 C116.322001,19.6380025 116.464,20.1959969 116.464,20.82 C116.464,21.4440031 116.322001,22.0019975 116.038,22.494 C115.753999,22.9860025 115.362003,23.3719986 114.862,23.652 C114.361998,23.9320014 113.796003,24.072 113.164,24.072 Z M113.164,23.064 C113.572002,23.064 113.937998,22.9700009 114.262,22.782 C114.586002,22.5939991 114.839999,22.3300017 115.024,21.99 C115.208001,21.6499983 115.3,21.2600022 115.3,20.82 C115.3,20.3799978 115.208001,19.9900017 115.024,19.65 C114.839999,19.3099983 114.586002,19.0480009 114.262,18.864 C113.937998,18.6799991 113.572002,18.588 113.164,18.588 C112.755998,18.588 112.390002,18.6799991 112.066,18.864 C111.741998,19.0480009 111.486001,19.3099983 111.298,19.65 C111.109999,19.9900017 111.016,20.3799978 111.016,20.82 C111.016,21.2600022 111.109999,21.6499983 111.298,21.99 C111.486001,22.3300017 111.741998,22.5939991 112.066,22.782 C112.390002,22.9700009 112.755998,23.064 113.164,23.064 Z M121.456,17.58 C122.264004,17.58 122.905998,17.8139977 123.382,18.282 C123.858002,18.7500023 124.096,19.4359955 124.096,20.34 L124.096,24 L122.944,24 L122.944,20.472 C122.944,19.8559969 122.796001,19.3920016 122.5,19.08 C122.203999,18.7679984 121.780003,18.612 121.228,18.612 C120.603997,18.612 120.112002,18.7939982 119.752,19.158 C119.391998,19.5220018 119.212,20.0439966 119.212,20.724 L119.212,24 L118.06,24 L118.06,17.64 L119.164,17.64 L119.164,18.6 C119.396001,18.2719984 119.709998,18.0200009 120.106,17.844 C120.502002,17.6679991 120.951997,17.58 121.456,17.58 Z M133.036,23.628 C132.867999,23.7720007 132.660001,23.8819996 132.412,23.958 C132.163999,24.0340004 131.908001,24.072 131.644,24.072 C131.003997,24.072 130.508002,23.9000017 130.156,23.556 C129.803998,23.2119983 129.628,22.7200032 129.628,22.08 L129.628,18.588 L128.548,18.588 L128.548,17.64 L129.628,17.64 L129.628,16.248 L130.78,16.248 L130.78,17.64 L132.604,17.64 L132.604,18.588 L130.78,18.588 L130.78,22.032 C130.78,22.3760017 130.865999,22.6399991 131.038,22.824 C131.210001,23.0080009 131.455998,23.1 131.776,23.1 C132.128002,23.1 132.427999,23.000001 132.676,22.8 L133.036,23.628 Z M137.824,17.58 C138.632004,17.58 139.273998,17.8139977 139.75,18.282 C140.226002,18.7500023 140.464,19.4359955 140.464,20.34 L140.464,24 L139.312,24 L139.312,20.472 C139.312,19.8559969 139.164001,19.3920016 138.868,19.08 C138.571999,18.7679984 138.148003,18.612 137.596,18.612 C136.971997,18.612 136.480002,18.7939982 136.12,19.158 C135.759998,19.5220018 135.58,20.0439966 135.58,20.724 L135.58,24 L134.428,24 L134.428,15.096 L135.58,15.096 L135.58,18.54 C135.820001,18.2359985 136.133998,18.0000008 136.522,17.832 C136.910002,17.6639992 137.343998,17.58 137.824,17.58 Z M148.384,20.856 C148.384,20.9440004 148.376,21.0599993 148.36,21.204 L143.2,21.204 C143.272,21.7640028 143.517998,22.2139983 143.938,22.554 C144.358002,22.8940017 144.879997,23.064 145.504,23.064 C146.264004,23.064 146.875998,22.8080026 147.34,22.296 L147.976,23.04 C147.687999,23.3760017 147.330002,23.6319991 146.902,23.808 C146.473998,23.9840009 145.996003,24.072 145.468,24.072 C144.795997,24.072 144.200003,23.9340014 143.68,23.658 C143.159997,23.3819986 142.758001,22.9960025 142.474,22.5 C142.189999,22.0039975 142.048,21.4440031 142.048,20.82 C142.048,20.2039969 142.185999,19.6480025 142.462,19.152 C142.738001,18.6559975 143.117998,18.2700014 143.602,17.994 C144.086002,17.7179986 144.631997,17.58 145.24,17.58 C145.848003,17.58 146.389998,17.7179986 146.866,17.994 C147.342002,18.2700014 147.713999,18.6559975 147.982,19.152 C148.250001,19.6480025 148.384,20.2159968 148.384,20.856 Z M145.24,18.552 C144.687997,18.552 144.226002,18.7199983 143.854,19.056 C143.481998,19.3920017 143.264,19.8319973 143.2,20.376 L147.28,20.376 C147.216,19.8399973 146.998002,19.4020017 146.626,19.062 C146.253998,18.7219983 145.792003,18.552 145.24,18.552 Z" id="Get-it-on-the" fill="#FFFFFF"></path>
            <path d="M159.316,32.6 C161.310677,32.6 162.879994,33.0766619 164.024,34.03 C165.168006,34.9833381 165.74,36.2959916 165.74,37.968 C165.74,39.6400084 165.168006,40.9526619 164.024,41.906 C162.879994,42.8593381 161.310677,43.336 159.316,43.336 L155.51,43.336 L155.51,48 L153.31,48 L153.31,32.6 L159.316,32.6 Z M159.25,41.422 C160.64334,41.422 161.706663,41.125003 162.44,40.531 C163.173337,39.936997 163.54,39.0826722 163.54,37.968 C163.54,36.8533278 163.173337,35.999003 162.44,35.405 C161.706663,34.810997 160.64334,34.514 159.25,34.514 L155.51,34.514 L155.51,41.422 L159.25,41.422 Z M168.886,31.676 L170.998,31.676 L170.998,48 L168.886,48 L168.886,31.676 Z M179.27,36.23 C180.883341,36.23 182.118996,36.625996 182.977,37.418 C183.835004,38.210004 184.264,39.3906588 184.264,40.96 L184.264,48 L182.262,48 L182.262,46.46 C181.909998,47.0026694 181.40767,47.4169986 180.755,47.703 C180.10233,47.9890014 179.328671,48.132 178.434,48.132 C177.12866,48.132 176.083671,47.8166698 175.299,47.186 C174.514329,46.5553302 174.122,45.7266718 174.122,44.7 C174.122,43.6733282 174.495996,42.8483364 175.244,42.225 C175.992004,41.6016635 177.179992,41.29 178.808,41.29 L182.152,41.29 L182.152,40.872 C182.152,39.9626621 181.888003,39.2660024 181.36,38.782 C180.831997,38.2979976 180.054672,38.056 179.028,38.056 C178.338663,38.056 177.664003,38.1696655 177.004,38.397 C176.343997,38.6243345 175.786669,38.9286648 175.332,39.31 L174.452,37.726 C175.053336,37.2419976 175.771996,36.871668 176.608,36.615 C177.444004,36.3583321 178.331329,36.23 179.27,36.23 Z M178.786,46.504 C179.592671,46.504 180.28933,46.3243351 180.876,45.965 C181.46267,45.6056649 181.887999,45.0960033 182.152,44.436 L182.152,42.808 L178.896,42.808 C177.106658,42.808 176.212,43.4093273 176.212,44.612 C176.212,45.1986696 176.439331,45.660665 176.894,45.998 C177.348669,46.335335 177.979329,46.504 178.786,46.504 Z M198.278,36.34 L192.624,49.166 C192.125331,50.3540059 191.542337,51.1899976 190.875,51.674 C190.207663,52.1580024 189.404671,52.4 188.466,52.4 C187.893997,52.4 187.340336,52.3083343 186.805,52.125 C186.269664,51.9416657 185.826002,51.6740018 185.474,51.322 L186.376,49.738 C186.977336,50.3100029 187.673996,50.596 188.466,50.596 C188.979336,50.596 189.408332,50.4603347 189.753,50.189 C190.097668,49.9176653 190.409332,49.4520033 190.688,48.792 L191.062,47.978 L185.914,36.34 L188.114,36.34 L192.184,45.668 L196.21,36.34 L198.278,36.34 Z" id="Play" fill="#FFFFFF"></path>
        </g>
    </g>
</svg>