<?xml version="1.0" encoding="UTF-8"?>
<svg width="203px" height="244px" viewBox="0 0 203 244" version="1.1" xmlns="http://www.w3.org/2000/svg" xmlns:xlink="http://www.w3.org/1999/xlink">
    <!-- Generator: Sketch 51.3 (57544) - http://www.bohemiancoding.com/sketch -->
    <title>Safe</title>
    <desc>Created with Sketch.</desc>
    <defs>
        <path d="M65.7653439,201.912779 L92.054278,201.912779 L77.8870865,95.9821799 L33.6459327,95.9821799 L19.4811275,201.912779 L46,201.912779 L46,193.886251 C46,188.438433 50.4312741,184 55.8838651,184 C61.3316836,184 65.7653439,188.436047 65.7653439,193.886251 L65.7653439,201.912779 Z M46,75.7914275 L46,67.8814788 C46,62.4336604 50.4312741,58 55.8838651,58 C61.3316836,58 65.7653439,62.4336604 65.7653439,67.8814788 L65.7653439,75.7914275 L74.12216,75.7914275 L74.12216,47.6293217 L38.9845662,47.6293217 L38.9845662,75.7914275 L46,75.7914275 Z M59.9869524,13.231173 C75.5055554,15.0897016 87.5876566,27.9405937 88.18524,44.0069877 C88.2210338,44.9543307 87.8654819,45.8754248 87.209262,46.5578935 C86.5482696,47.2451347 85.6438792,47.6293217 84.6917638,47.6293217 L81.1043399,47.6293217 L81.1043399,76 L88.8385031,76 C90.7689828,76 92.3319793,77.5629965 92.3319793,79.49109 L92.3319793,92.2861853 C92.3295931,94.2166649 90.7665966,95.7772752 88.8361169,95.7772752 L84.9030198,95.7772752 L99.1107224,202 L109.218857,202 C111.149337,202 112.709947,203.56061 112.709947,205.49109 C112.707561,207.423956 111.14695,208.986952 109.216471,208.986952 L3.49108997,208.986952 C1.56061028,208.986952 0,207.426342 0,205.49109 C0,203.56061 1.56061028,202 3.49108997,202 L12.424854,202 L26.6300866,95.7772752 L22.4934762,95.7772752 C20.5629965,95.7772752 19,94.2166649 19,92.2861853 L19,79.49109 C19,77.5606103 20.5629965,76 22.4934762,76 L32,76 L32,47.6293217 L27.4932494,47.6293217 C26.5482927,47.6293217 25.6391299,47.2451347 24.9757512,46.5602798 C24.3243038,45.8778111 23.9687519,44.9543307 24.0021594,44.0046015 C24.6233106,27.6685511 37.1104475,14.6556512 53,13.1462968 L53,3.49108997 C53,1.56061028 54.5629965,0 56.4934762,0 C58.4239559,0 59.9869524,1.56299653 59.9869524,3.49108997 L59.9869524,13.231173 Z M25.9845662,88.7950953 L85.3474132,88.7950953 L85.3474132,82.9845662 L25.9845662,82.9845662 L25.9845662,88.7950953 Z M31.3756851,40.6471417 L80.8164869,40.6471417 C78.6807893,28.8065481 68.4413723,19.9845662 56.0996654,19.9845662 C43.7579584,19.9845662 33.5161551,28.8065481 31.3756851,40.6471417 Z M52.9845662,75.8945206 L58.783164,75.8945206 L58.783164,67.8814788 C58.783164,66.2826885 57.4778829,64.9845662 55.8838651,64.9845662 C54.287461,64.9845662 52.9845662,66.2826885 52.9845662,67.8814788 L52.9845662,75.8945206 Z M62.2718677,124.879087 L49.4934762,124.879087 C47.5606103,124.879087 46,123.318477 46,121.387997 L46,109.881479 C46,104.43366 50.4312741,100 55.8838651,100 C61.3316836,100 65.7653439,104.43366 65.7653439,109.881479 L65.7653439,121.387997 C65.7629577,123.31609 64.2023474,124.879087 62.2718677,124.879087 Z M52.9845662,117.896907 L58.783164,117.896907 L58.783164,109.881479 C58.783164,108.282689 57.4778829,106.98218 55.8838651,106.98218 C54.287461,106.98218 52.9845662,108.282689 52.9845662,109.881479 L52.9845662,117.896907 Z M62.2718677,166.879087 L49.4934762,166.879087 C47.5606103,166.879087 46,165.318477 46,163.387997 L46,151.881479 C46,146.43366 50.4312741,142 55.8838651,142 C61.3316836,142 65.7653439,146.431274 65.7653439,151.881479 L65.7653439,163.387997 C65.7629577,165.318477 64.2023474,166.879087 62.2718677,166.879087 Z M52.9845662,159.892134 L58.783164,159.892134 L58.783164,151.881479 C58.783164,150.282689 57.4778829,148.98218 55.8838651,148.98218 C54.287461,148.98218 52.9845662,150.282689 52.9845662,151.881479 L52.9845662,159.892134 Z M52.9845662,201.896907 L58.783164,201.896907 L58.783164,193.886251 C58.783164,192.287461 57.4778829,190.986952 55.8838651,190.986952 C54.287461,190.986952 52.9845662,192.287461 52.9845662,193.886251 L52.9845662,201.896907 Z" id="path-1"></path>
        <filter x="-24.0%" y="-12.9%" width="147.9%" height="125.8%" filterUnits="objectBoundingBox" id="filter-2">
            <feOffset dx="0" dy="0" in="SourceAlpha" result="shadowOffsetOuter1"></feOffset>
            <feGaussianBlur stdDeviation="9" in="shadowOffsetOuter1" result="shadowBlurOuter1"></feGaussianBlur>
            <feColorMatrix values="0 0 0 0 0.292093217   0 0 0 0 0.99387747   0 0 0 0 0.99262172  0 0 0 1 0" type="matrix" in="shadowBlurOuter1"></feColorMatrix>
        </filter>
        <filter x="-17.7%" y="-9.6%" width="135.5%" height="119.1%" filterUnits="objectBoundingBox" id="filter-3">
            <feGaussianBlur stdDeviation="2" in="SourceAlpha" result="shadowBlurInner1"></feGaussianBlur>
            <feOffset dx="0" dy="0" in="shadowBlurInner1" result="shadowOffsetInner1"></feOffset>
            <feComposite in="shadowOffsetInner1" in2="SourceAlpha" operator="arithmetic" k2="-1" k3="1" result="shadowInnerInner1"></feComposite>
            <feColorMatrix values="0 0 0 0 0.298039216   0 0 0 0 0.48627451   0 0 0 0 0.952941176  0 0 0 1 0" type="matrix" in="shadowInnerInner1"></feColorMatrix>
        </filter>
    </defs>
    <g id="Page-1" stroke="none" stroke-width="1" fill="none" fill-rule="evenodd">
        <g id="CLOUD-Web-(D)" transform="translate(-976.000000, -972.000000)">
            <g id="Benefits" transform="translate(119.000000, 888.000000)">
                <g id="Group-14" transform="translate(91.000000, 101.000000)">
                    <g id="Safe" transform="translate(766.000000, 0.000000)">
                        <g id="Group" stroke-width="1" fill-rule="evenodd" transform="translate(45.000000, 0.000000)">
                            <g id="Combined-Shape" fill-rule="nonzero">
                                <use fill="black" fill-opacity="1" filter="url(#filter-2)" xlink:href="#path-1"></use>
                                <use fill="#4AFDFD" xlink:href="#path-1"></use>
                                <use fill="black" fill-opacity="1" filter="url(#filter-3)" xlink:href="#path-1"></use>
                            </g>
                        </g>
                        <path d="M142.489242,62.7943438 C141.086124,62.7943438 139.761753,61.942451 139.232005,60.5512648 C138.542377,58.7520291 139.441995,56.7308718 141.243617,56.0436305 L198.217824,34.2332667 C200.007514,33.541253 202.040603,34.4408708 202.727844,36.244879 C203.415085,38.046501 202.515468,40.0652721 200.716232,40.7548996 L143.739639,62.5652634 C143.329203,62.7203699 142.906836,62.7943438 142.489242,62.7943438 Z" id="Shape" fill="#FFFFFF" fill-rule="nonzero"></path>
                        <path d="M3.4903681,86.79337 C2.08486434,86.79337 0.760493234,85.9414773 0.230744791,84.550291 C-0.456496433,82.7510553 0.443121419,80.7322842 2.24235712,80.0426568 L59.2189498,58.2322929 C61.013413,57.5426654 63.0393429,58.439897 63.7265841,60.2439052 C64.4162116,62.0431409 63.5165937,64.0642983 61.7149718,64.7515395 L4.74076532,86.5619034 C4.32794334,86.7170099 3.90557634,86.79337 3.4903681,86.79337 Z" id="Shape" fill="#FFFFFF" fill-rule="nonzero"></path>
                        <path d="M199.465835,85.79337 C199.050626,85.79337 198.625873,85.7193961 198.217824,85.5619034 L141.243617,63.7515395 C139.441995,63.061912 138.542377,61.0431409 139.232005,59.2439052 C139.919246,57.439897 141.945176,56.5426654 143.739639,57.2322929 L200.716232,79.0426568 C202.515468,79.7322842 203.415085,81.7510553 202.727844,83.550291 C202.195709,84.9414773 200.871338,85.79337 199.465835,85.79337 Z" id="Shape" fill="#FFFFFF" fill-rule="nonzero"></path>
                        <path d="M60.4669608,63.7967301 C60.0493663,63.7967301 59.6269993,63.7203699 59.2189498,63.5652634 L2.24235712,41.7548996 C0.443121419,41.0652721 -0.456496433,39.046501 0.230744791,37.244879 C0.917986015,35.4408708 2.94630213,34.541253 4.74076532,35.2332667 L61.7149718,57.0436305 C63.5165937,57.733258 64.4162116,59.7520291 63.7265841,61.5512648 C63.1920632,62.9448373 61.8700783,63.7967301 60.4669608,63.7967301 Z" id="Shape" fill="#FFFFFF" fill-rule="nonzero"></path>
                    </g>
                </g>
            </g>
        </g>
    </g>
</svg>