<?xml version="1.0" encoding="UTF-8"?>
<svg width="260px" height="260px" viewBox="0 0 260 260" version="1.1" xmlns="http://www.w3.org/2000/svg" xmlns:xlink="http://www.w3.org/1999/xlink">
    <!-- Generator: Sketch 51.2 (57519) - http://www.bohemiancoding.com/sketch -->
    <title>Artboard Copy</title>
    <desc>Created with Sketch.</desc>
    <defs>
        <linearGradient x1="50%" y1="0%" x2="50%" y2="144.737257%" id="linearGradient-1">
            <stop stop-color="#4C7CF3" offset="0%"></stop>
            <stop stop-color="#53A0FD" offset="47.5247532%"></stop>
            <stop stop-color="#51ECBC" offset="100%"></stop>
        </linearGradient>
        <path d="M59.2149071,48.0635039 C58.3082371,55.4956813 52.5254061,61.4311206 45.1953817,62.5194634 C44.608282,63.0284153 43.8435754,63.3358172 43.0064379,63.3358172 C39.6251137,63.3358172 36.8210395,65.8655279 36.3641618,69.1436297 C36.4501911,69.4427282 36.4962891,69.7590348 36.4962891,70.0863432 C36.4962891,71.9528636 34.9971793,73.4616061 33.142576,73.4616061 C33.0987456,73.4616061 33.0549636,73.4613936 33.0112311,73.4609695 C32.9893051,73.4613933 32.967327,73.4616061 32.9452988,73.4616061 C32.8786783,73.4616061 32.8125166,73.4596593 32.7468665,73.455819 C26.67503,73.2780108 21.6034445,69.0218985 20.1478738,63.3200535 C8.78730907,61.7647019 0,51.9337723 0,40.0812479 C0,39.9504317 0.0074181664,39.8213858 0.0218549433,39.6945125 C0.00741570128,39.5689454 0,39.4412756 0,39.3118865 L0,29.1860976 C0,29.175069 5.38761331e-05,29.1640529 0.000161385554,29.1530495 C5.38295245e-05,29.12626 0,29.0994579 0,29.0726434 C0,27.2688631 1.44871949,25.8108346 3.2409832,25.8108346 C3.27552957,25.8108346 3.3099483,25.8113763 3.34423148,25.8124518 C3.38013482,25.8113763 3.41617755,25.8108346 3.45235167,25.8108346 C5.36150214,25.8108346 6.90470334,27.3195771 6.90470334,29.1860976 L6.90470334,32.3839788 C8.36413579,37.9806495 13.432756,42.1198784 19.4458992,42.1198784 C20.173185,42.1198784 20.8439004,42.3599675 21.3841971,42.7658228 C29.5425341,42.1222973 36.0551471,35.5008066 36.5899259,27.2612978 C36.5287268,27.0086236 36.4962891,26.744508 36.4962891,26.4726509 C36.4962891,12.0475902 48.0214096,0.279125835 62.2904415,0.00489217652 C62.3502543,0.00164467109 62.4104961,0 62.4711255,0 C62.530311,0 62.5894638,0.000143851033 62.6485836,0.000431223914 C62.6989964,0.00014386999 62.7494422,0 62.7999209,0 C62.8477103,0 62.8952589,0.00102182603 62.9425465,0.00304498985 C81.3718206,0.241235746 96.5239941,14.4250977 98.4352993,32.526839 C100.479131,31.7509397 102.050354,29.9980862 102.584164,27.8367123 L102.584164,26.1639595 C102.584164,24.3217516 104.063747,22.8326614 105.894193,22.8326614 C105.934394,22.8326614 105.974427,22.8333797 106.014278,22.8348042 C106.054393,22.8333796 106.094689,22.8326614 106.135154,22.8326614 C107.989758,22.8326614 109.488867,24.3414039 109.488867,26.2079244 C109.488867,27.1586821 109.390769,28.0867663 109.204222,28.9824655 L109.204222,44.3964361 C109.469977,44.8762139 109.621317,45.4292714 109.621317,46.0184476 C109.621317,54.0623228 103.92635,60.7927685 96.3812011,62.3402954 L96.3812011,65.6840321 C106.857436,70.554387 118.50139,78.3176483 118.969846,88.8881563 C119.034023,89.1474375 119.068084,89.4188151 119.068084,89.6983215 L119.068084,96.2942831 C119.790544,96.2965439 120.500793,96.5442257 121.084004,97.0055804 C121.888341,97.6351957 122.358365,98.6046034 122.358365,99.6306432 L122.358365,149.600115 C122.358365,150.48624 122.010812,151.33239 121.388527,151.955342 L119.464775,153.891456 L128.828619,182.163496 C129.407874,183.909096 128.471135,185.797942 126.73668,186.377588 C126.558443,186.436818 126.379351,186.480574 126.20114,186.509293 L80.9030045,212.560269 C80.38664,212.860085 79.820625,213 79.2645402,213 C79.2601452,213 79.2557506,212.999991 79.2513567,212.999974 C79.2469627,212.999991 79.2425682,213 79.2381732,213 C78.6820883,213 78.1160734,212.860085 77.5997089,212.560269 L32.2612771,186.486119 C32.1253614,186.458736 31.9894754,186.422517 31.8545865,186.377265 C30.4363361,185.902387 29.549054,184.551036 29.5931574,183.11637 C29.5750478,182.525389 29.7131029,181.922372 30.024859,181.371486 L39.1932374,153.689611 L37.4661275,151.951403 C36.8438421,151.328451 36.4962891,150.482301 36.4962891,149.596176 L36.4962891,99.6267043 C36.4962891,98.6006645 36.9663132,97.6312567 37.7706502,97.0016414 C38.263242,96.6160526 38.8501841,96.3803953 39.4554477,96.3137989 L39.4554477,89.6983215 C39.4554477,89.6731605 39.4557237,89.6480653 39.4562728,89.6230388 C39.4557237,89.5980124 39.4554477,89.5729172 39.4554477,89.5477561 C39.4554477,78.2740915 52.1766542,70.122475 63.1287162,65.1934669 L63.1287162,41.0548256 C63.1287162,40.9329056 63.1351968,40.8125322 63.1478307,40.6940348 C62.970748,39.9664977 62.3153953,39.4225016 61.5399265,39.4225016 C60.6296685,39.4225016 59.884912,40.1720437 59.884912,41.0881507 L59.884912,46.0517727 C59.884912,46.8080636 59.6355446,47.5048405 59.2149071,48.0635039 Z M53.2648543,44.1828048 L53.2648543,41.0548256 C53.2648543,41.0354722 53.2650176,41.0161578 53.2653429,40.9968837 C53.3140987,36.4449318 57.0056626,32.7599054 61.5399265,32.7599054 C66.1044563,32.7599054 69.8149986,36.4942906 69.8149986,41.0881507 C69.8149986,41.3168066 69.7922043,41.5400223 69.748774,41.7556258 L69.748774,62.482487 C72.2298991,61.5589591 74.3825182,60.8548497 75.9517367,60.3719279 L75.9517367,55.923475 C75.9517367,54.093553 77.4949379,52.6143936 79.4040884,52.6143936 C81.3132389,52.6143936 82.8564401,54.093553 82.8564401,55.923475 L82.8564401,60.4871576 C84.6208328,61.037368 87.025066,61.8383544 89.7611434,62.8879795 L89.7611434,59.9165893 C89.7611434,59.8200741 89.7652046,59.724528 89.7731647,59.6301146 C89.7652046,59.5357012 89.7611434,59.4401552 89.7611434,59.34364 C89.7611434,57.5014321 91.2407263,56.0123419 93.0711723,56.0123419 C98.0313611,56.0123419 102.154706,52.3317268 102.886025,47.5420979 C102.692209,47.1182677 102.584164,46.6462352 102.584164,46.1484167 L102.584164,38.0105757 C100.655251,39.0923098 98.434991,39.7089763 96.074015,39.7089763 C95.9511861,39.7089763 95.8299165,39.7023585 95.7105384,39.6894572 C95.592364,39.7023573 95.4722944,39.7089763 95.3506652,39.7089763 C93.5324266,39.7089763 92.0627112,38.2298169 92.0627112,36.3998949 C92.0627112,20.0376845 78.8872755,6.71705193 62.6521171,6.61871076 C52.2575208,6.69582159 43.7523036,14.9004099 43.1110222,25.2195336 C43.1985382,25.5188572 43.2454861,25.835806 43.2454861,26.1639595 C43.2454861,39.0194388 32.8519955,49.4797148 20.0785941,49.4797148 C19.1993226,49.4797148 18.401011,49.1361148 17.8087671,48.5748265 C13.7984459,48.2369973 10.1306355,46.6696267 7.17958003,44.2493636 C8.91720037,51.0539223 14.8065648,56.2003677 21.9567301,56.7791803 C22.3081851,56.6536184 22.6867613,56.5852912 23.0814369,56.5852912 C24.1605793,56.5852912 25.1193602,57.0961144 25.7324787,57.8910118 C26.2908253,58.4900139 26.6324272,59.2962022 26.6324272,60.1839172 C26.6324272,60.4819014 26.5939361,60.7706993 26.5216766,61.045558 C26.875602,63.2420098 28.2859662,65.0861253 30.2094272,66.0310714 C31.6954528,61.2899465 35.7156932,57.6712752 40.664364,56.79116 C41.2355706,56.3189071 41.967154,56.035661 42.7654765,56.035661 C48.2535044,56.035661 52.7187333,51.5417398 52.7187333,46.0184476 C52.7187333,45.3396898 52.9195925,44.708869 53.2648543,44.1828048 Z M67.970513,70.4296196 C67.8213564,70.5080784 67.6654975,70.5754332 67.5040125,70.6305915 C57.3913624,75.0163966 46.0755054,81.8355833 46.0755054,89.5477561 C46.0755054,89.5729172 46.0752294,89.5980124 46.0746802,89.6230388 C46.0752294,89.6480653 46.0755054,89.6731605 46.0755054,89.6983215 L46.0755054,97.7711694 L75.9517367,105.288221 L75.9517367,67.378863 C73.5978333,68.1724864 70.8408583,69.2012873 67.970513,70.4296196 Z M92.418061,71.2816675 C91.9368572,71.1850599 91.4935614,70.9837227 91.1125542,70.7021931 C88.1609569,69.4167912 85.3055354,68.3375449 82.8564401,67.5022401 L82.8564401,105.303854 L112.448026,97.8584211 L112.448026,90.2975115 C112.393305,90.0569378 112.364404,89.8063654 112.364404,89.5488953 C112.364404,82.1987268 102.12157,75.6717856 92.418061,71.2816675 Z M75.9517367,203.941016 L75.9517367,182.913096 L69.3979037,182.913096 C68.1289529,182.913096 67.0286237,182.197452 66.4729699,181.144635 L44.426393,158.956393 L36.9551732,181.514076 L75.9517367,203.941016 Z M82.8564401,203.765343 L121.621835,181.471349 L114.231619,159.158239 L91.5982672,181.937025 C90.9792918,182.563309 90.1385445,182.913096 89.2580768,182.913096 L82.8564401,182.913096 L82.8564401,203.765343 Z M77.5216897,176.250499 C78.0628379,175.909946 78.7092244,175.71222 79.4040884,175.71222 C80.0989524,175.71222 80.7453389,175.909946 81.2864871,176.250499 L87.8877249,176.250499 L115.738308,148.220957 L115.738308,103.898036 L80.8139429,112.683597 C80.4127946,112.854609 79.9765365,112.947586 79.5288554,112.948945 C78.9820674,112.982915 78.4482894,112.878992 77.9685312,112.6615 L43.1163468,103.894097 L43.1163468,148.217018 L70.9708434,176.250499 L77.5216897,176.250499 Z M79.4040884,172.734047 C77.4949379,172.734047 75.9517367,171.254888 75.9517367,169.424966 L75.9517367,146.261396 C75.9517367,144.431474 77.4949379,142.952315 79.4040884,142.952315 C81.3132389,142.952315 82.8564401,144.431474 82.8564401,146.261396 L82.8564401,169.424966 C82.8564401,171.254888 81.3132389,172.734047 79.4040884,172.734047 Z M93.0711723,166.477949 C91.2407263,166.477949 89.7611434,164.988859 89.7611434,163.146651 L89.7611434,143.30544 C89.7611434,141.463232 91.2407263,139.974141 93.0711723,139.974141 C94.9016182,139.974141 96.3812011,141.463232 96.3812011,143.30544 L96.3812011,163.146651 C96.3812011,164.988859 94.9016182,166.477949 93.0711723,166.477949 Z M106.036516,152.879559 C104.127365,152.879559 102.584164,151.370816 102.584164,149.504296 L102.584164,139.378507 C102.584164,137.511986 104.127365,136.003244 106.036516,136.003244 C107.945666,136.003244 109.488867,137.511986 109.488867,139.378507 L109.488867,149.504296 C109.488867,151.370816 107.945666,152.879559 106.036516,152.879559 Z M66.4387451,166.477949 C64.6082991,166.477949 63.1287162,164.988859 63.1287162,163.146651 L63.1287162,143.30544 C63.1287162,141.463232 64.6082991,139.974141 66.4387451,139.974141 C68.2691911,139.974141 69.748774,141.463232 69.748774,143.30544 L69.748774,163.146651 C69.748774,164.988859 68.2691911,166.477949 66.4387451,166.477949 Z M52.7716612,152.879559 C50.8625108,152.879559 49.3193096,151.370816 49.3193096,149.504296 L49.3193096,139.378507 C49.3193096,137.511986 50.8625108,136.003244 52.7716612,136.003244 C54.6808117,136.003244 56.2240129,137.511986 56.2240129,139.378507 L56.2240129,149.504296 C56.2240129,151.370816 54.6808117,152.879559 52.7716612,152.879559 Z" id="path-2"></path>
        <filter x="-20.9%" y="-12.7%" width="141.9%" height="125.4%" filterUnits="objectBoundingBox" id="filter-3">
            <feOffset dx="0" dy="0" in="SourceAlpha" result="shadowOffsetOuter1"></feOffset>
            <feGaussianBlur stdDeviation="9" in="shadowOffsetOuter1" result="shadowBlurOuter1"></feGaussianBlur>
            <feColorMatrix values="0 0 0 0 0.292093217   0 0 0 0 0.99387747   0 0 0 0 0.99262172  0 0 0 1 0" type="matrix" in="shadowBlurOuter1"></feColorMatrix>
        </filter>
        <filter x="-15.5%" y="-9.4%" width="131.0%" height="118.8%" filterUnits="objectBoundingBox" id="filter-4">
            <feGaussianBlur stdDeviation="2" in="SourceAlpha" result="shadowBlurInner1"></feGaussianBlur>
            <feOffset dx="0" dy="0" in="shadowBlurInner1" result="shadowOffsetInner1"></feOffset>
            <feComposite in="shadowOffsetInner1" in2="SourceAlpha" operator="arithmetic" k2="-1" k3="1" result="shadowInnerInner1"></feComposite>
            <feColorMatrix values="0 0 0 0 0.298039216   0 0 0 0 0.48627451   0 0 0 0 0.952941176  0 0 0 1 0" type="matrix" in="shadowInnerInner1"></feColorMatrix>
        </filter>
    </defs>
    <g id="Artboard-Copy" stroke="none" stroke-width="1" fill="none" fill-rule="evenodd">
        <rect id="Rectangle" fill="url(#linearGradient-1)" x="0" y="0" width="260" height="260" rx="20"></rect>
        <g id="Group" transform="translate(54.000000, 24.000000)">
            <g id="Combined-Shape" fill-rule="nonzero">
                <use fill="black" fill-opacity="1" filter="url(#filter-3)" xlink:href="#path-2"></use>
                <use fill="#4AFDFD" xlink:href="#path-2"></use>
                <use fill="black" fill-opacity="1" filter="url(#filter-4)" xlink:href="#path-2"></use>
            </g>
            <path d="M52.5981916,118.158113 L79,126.456515 L105.401808,118.158113 C106.860275,117.6997 108.414214,118.510404 108.872627,119.968871 C108.957048,120.23746 109,120.517357 109,120.798902 L109,122.368881 C109,123.679209 108.149583,124.83794 106.899548,125.230841 L79,134 L51.1004521,125.230841 C49.8504169,124.83794 49,123.679209 49,122.368881 L49,120.798902 C49,119.270089 50.2393477,118.030741 51.7681606,118.030741 C52.0497051,118.030741 52.329602,118.073693 52.5981916,118.158113 Z" id="Rectangle-6" fill="#FFFFFF"></path>
        </g>
    </g>
</svg>