<?xml version="1.0" encoding="UTF-8"?>
<svg width="260px" height="260px" viewBox="0 0 260 260" version="1.1" xmlns="http://www.w3.org/2000/svg" xmlns:xlink="http://www.w3.org/1999/xlink">
    <!-- Generator: Sketch 52.1 (67048) - http://www.bohemiancoding.com/sketch -->
    <title>Artboard Copy 6</title>
    <desc>Created with Sketch.</desc>
    <defs>
        <path d="M117.428714,0 C120.467851,0 122.931686,2.49650669 122.928188,5.57199046 L122.928188,8.88473089 C122.928188,11.9637558 120.464354,14.4567213 117.426965,14.4567213 L90.5486111,14.4567213 C88.78773,14.4567213 87.2226967,13.6174702 86.2154798,12.3143291 L78.7295495,12.3143291 L78.7295495,114.318759 C87.0146085,116.535516 93.1261073,124.173764 93.1278559,133.26211 L93.1278559,152.331172 C93.1278559,154.496582 91.3984504,156.252989 89.259863,156.252989 L86.9621493,156.252989 C84.8270592,156.252989 83.0941564,154.496582 83.0941564,152.331172 L83.0941564,133.26211 L83.0994023,133.26211 C83.0994023,128.051317 78.9253973,123.82142 73.7773994,123.82142 C68.6259043,123.82142 64.453648,128.051317 64.453648,133.26211 L64.4711344,133.26211 L64.4711344,152.331172 C64.4711344,154.496582 62.7399802,156.252989 60.5996442,156.252989 L58.2984332,156.252989 C56.1598458,156.252989 54.4251943,154.496582 54.4251943,152.331172 L54.4251943,133.26211 C54.4251943,124.22511 60.4667475,116.624044 68.6818608,114.359483 L68.6818608,12.3143291 L60.5017203,12.3143291 C59.4945033,13.6174702 57.92947,14.4567213 56.1703376,14.4567213 L29.2937321,14.4567213 C26.2510976,14.4567213 23.7890116,11.9637558 23.7890116,8.88473089 L23.7890116,5.57199046 C23.7890116,2.49650669 26.2528462,0 29.2937321,0 L56.1703376,0 C57.9312187,0 59.4945033,0.841021756 60.5017203,2.14239226 L86.2189771,2.14239226 C87.2279427,0.841021756 88.7912273,0 90.5503597,0 L117.428714,0 Z M75.4281161,131.022337 C77.5684522,131.022337 79.301355,132.780515 79.301355,134.944154 L79.301355,168.007818 C79.301355,170.173227 77.5684522,171.929635 75.4281161,171.929635 L73.1269052,171.929635 C70.9883177,171.929635 69.2536663,170.173227 69.2536663,168.007818 L69.2536663,134.944154 C69.2536663,132.778744 70.9883177,131.022337 73.1269052,131.022337 L75.4281161,131.022337 Z" id="path-1"></path>
        <filter x="-27.2%" y="-15.7%" width="154.5%" height="131.4%" filterUnits="objectBoundingBox" id="filter-2">
            <feOffset dx="0" dy="0" in="SourceAlpha" result="shadowOffsetOuter1"></feOffset>
            <feGaussianBlur stdDeviation="9" in="shadowOffsetOuter1" result="shadowBlurOuter1"></feGaussianBlur>
            <feColorMatrix values="0 0 0 0 0.0509803922   0 0 0 0 0.862745098   0 0 0 0 0.631372549  0 0 0 1 0" type="matrix" in="shadowBlurOuter1"></feColorMatrix>
        </filter>
        <filter x="-19.7%" y="-11.3%" width="139.3%" height="122.7%" filterUnits="objectBoundingBox" id="filter-3">
            <feGaussianBlur stdDeviation="1.5" in="SourceAlpha" result="shadowBlurInner1"></feGaussianBlur>
            <feOffset dx="0" dy="0" in="shadowBlurInner1" result="shadowOffsetInner1"></feOffset>
            <feComposite in="shadowOffsetInner1" in2="SourceAlpha" operator="arithmetic" k2="-1" k3="1" result="shadowInnerInner1"></feComposite>
            <feColorMatrix values="0 0 0 0 0.298039216   0 0 0 0 0.48627451   0 0 0 0 0.952941176  0 0 0 1 0" type="matrix" in="shadowInnerInner1"></feColorMatrix>
        </filter>
    </defs>
    <g id="Artboard-Copy-6" stroke="none" stroke-width="1" fill="none" fill-rule="evenodd">
        <g id="Group" transform="translate(56.000000, 44.000000)" fill-rule="nonzero">
            <path d="M132.205459,75.7315991 C132.205459,75.0365926 132.466086,74.3850239 132.943903,73.9072069 L142.630557,64.3074286 C143.108374,63.8296116 143.803381,63.5689841 144.45495,63.5689841 C145.106518,63.5689841 145.758087,63.7861737 146.279342,64.3074286 C147.278414,65.3065006 147.278414,66.9571412 146.279342,67.9562131 L138.460518,75.775037 L146.279342,83.593861 C147.278414,84.5929329 147.278414,86.2435735 146.279342,87.2426454 C145.28027,88.2417174 143.629629,88.2417174 142.630557,87.2426454 L132.943903,77.5559914 C132.466086,77.0781744 132.205459,76.4266057 132.205459,75.7315991 Z M119.48901,77.5559914 C118.489939,76.5569194 118.489939,74.9062788 119.48901,73.9072069 L129.175665,64.3074286 C129.653482,63.8296116 130.348488,63.5689841 131.000057,63.5689841 C131.651625,63.5689841 132.303194,63.7861737 132.824449,64.3074286 C133.823521,65.3065006 133.823521,66.9571412 132.824449,67.9562131 L125.005625,75.775037 L132.824449,83.593861 C133.823521,84.5929329 133.823521,86.2435735 132.824449,87.2426454 C131.825377,88.2417174 130.174737,88.2417174 129.175665,87.2426454 L119.48901,77.5559914 Z M106.457637,77.5559914 C105.458565,76.5569194 105.458565,74.9062788 106.457637,73.9072069 L116.144291,64.3074286 C116.622108,63.8296116 117.317115,63.5689841 117.968684,63.5689841 C118.620252,63.5689841 119.271821,63.7861737 119.793076,64.3074286 C120.792148,65.3065006 120.792148,66.9571412 119.793076,67.9562131 L111.974252,75.775037 L119.793076,83.593861 C120.792148,84.5929329 120.792148,86.2435735 119.793076,87.2426454 C118.794004,88.2417174 117.143363,88.2417174 116.144291,87.2426454 L106.457637,77.5559914 Z" id="Combined-Shape" fill="#FFFFFF"></path>
            <path d="M26.4971255,75.7315991 C26.4971255,75.0365926 26.757753,74.3850239 27.23557,73.9072069 L36.922224,64.3074286 C37.4000411,63.8296116 38.0950476,63.5689841 38.7466163,63.5689841 C39.398185,63.5689841 40.0497536,63.7861737 40.5710085,64.3074286 C41.5700805,65.3065006 41.5700805,66.9571412 40.5710085,67.9562131 L32.7521846,75.775037 L40.5710085,83.593861 C41.5700805,84.5929329 41.5700805,86.2435735 40.5710085,87.2426454 C39.5719366,88.2417174 37.921296,88.2417174 36.922224,87.2426454 L27.23557,77.5559914 C26.757753,77.0781744 26.4971255,76.4266057 26.4971255,75.7315991 Z M13.7806772,77.5559914 C12.7816052,76.5569194 12.7816052,74.9062788 13.7806772,73.9072069 L23.4673312,64.3074286 C23.9451482,63.8296116 24.6401548,63.5689841 25.2917235,63.5689841 C25.9432921,63.5689841 26.5948608,63.7861737 27.1161157,64.3074286 C28.1151877,65.3065006 28.1151877,66.9571412 27.1161157,67.9562131 L19.2972918,75.775037 L27.1161157,83.593861 C28.1151877,84.5929329 28.1151877,86.2435735 27.1161157,87.2426454 C26.1170438,88.2417174 24.4664032,88.2417174 23.4673312,87.2426454 L13.7806772,77.5559914 Z M0.749303959,77.5559914 C-0.249767986,76.5569194 -0.249767986,74.9062788 0.749303959,73.9072069 L10.435958,64.3074286 C10.913775,63.8296116 11.6087816,63.5689841 12.2603503,63.5689841 C12.9119189,63.5689841 13.5634876,63.7861737 14.0847425,64.3074286 C15.0838145,65.3065006 15.0838145,66.9571412 14.0847425,67.9562131 L6.26591861,75.775037 L14.0847425,83.593861 C15.0838145,84.5929329 15.0838145,86.2435735 14.0847425,87.2426454 C13.0856706,88.2417174 11.43503,88.2417174 10.435958,87.2426454 L0.749303959,77.5559914 Z" id="Combined-Shape-Copy" fill="#FFFFFF" transform="translate(20.660156, 75.780467) rotate(180.000000) translate(-20.660156, -75.780467) "></path>
            <g id="Combined-Shape">
                <use fill="black" fill-opacity="1" filter="url(#filter-2)" xlink:href="#path-1"></use>
                <use fill="#0DDCA1" xlink:href="#path-1"></use>
                <use fill="black" fill-opacity="1" filter="url(#filter-3)" xlink:href="#path-1"></use>
            </g>
        </g>
    </g>
</svg>