<?xml version="1.0" encoding="UTF-8"?>
<svg width="165px" height="226px" viewBox="0 0 165 226" version="1.1" xmlns="http://www.w3.org/2000/svg" xmlns:xlink="http://www.w3.org/1999/xlink">
    <!-- Generator: Sketch 51.3 (57544) - http://www.bohemiancoding.com/sketch -->
    <title>Upright</title>
    <desc>Created with Sketch.</desc>
    <defs>
        <path d="M131.083215,0.039273513 C134.475741,0.039273513 137.226068,2.82607167 137.222164,6.25916984 L137.222164,9.95711264 C137.222164,13.3941637 134.471837,16.177009 131.081263,16.177009 L101.077519,16.177009 C99.1118847,16.177009 97.3648708,15.2401704 96.2405356,13.7855013 L87.8841483,13.7855013 L87.8841483,127.650912 C97.1325862,130.125431 103.954724,138.651847 103.956676,148.796978 L103.956676,170.083373 C103.956676,172.500574 102.026177,174.461215 99.6389168,174.461215 L97.0740271,174.461215 C94.6906707,174.461215 92.7562676,172.500574 92.7562676,170.083373 L92.7562676,148.796978 L92.7621235,148.796978 C92.7621235,142.980278 88.102769,138.258533 82.3561668,138.258533 C76.6056607,138.258533 71.9482582,142.980278 71.9482582,148.796978 L71.9677779,148.796978 L71.9677779,170.083373 C71.9677779,172.500574 70.0353267,174.461215 67.6461144,174.461215 L65.0773207,174.461215 C62.6900604,174.461215 60.7537053,172.500574 60.7537053,170.083373 L60.7537053,148.796978 C60.7537053,138.709164 67.4977646,130.224253 76.6681237,127.69637 L76.6681237,13.7855013 L67.536804,13.7855013 C66.4124688,15.2401704 64.6654549,16.177009 62.7017722,16.177009 L32.6999801,16.177009 C29.3035508,16.177009 26.5551758,13.3941637 26.5551758,9.95711264 L26.5551758,6.25916984 C26.5551758,2.82607167 29.3055027,0.039273513 32.6999801,0.039273513 L62.7017722,0.039273513 C64.6674069,0.039273513 66.4124688,0.978088497 67.536804,2.43078116 L96.2444395,2.43078116 C97.3707267,0.978088497 99.1157886,0.039273513 101.079471,0.039273513 L131.083215,0.039273513 Z M84.1988273,146.296766 C86.5880397,146.296766 88.5224428,148.259383 88.5224428,150.674608 L88.5224428,187.582884 C88.5224428,190.000086 86.5880397,191.960726 84.1988273,191.960726 L81.6300337,191.960726 C79.2427733,191.960726 77.3064182,190.000086 77.3064182,187.582884 L77.3064182,150.674608 C77.3064182,148.257407 79.2427733,146.296766 81.6300337,146.296766 L84.1988273,146.296766 Z" id="path-1"></path>
        <filter x="-24.4%" y="-14.1%" width="148.8%" height="128.1%" filterUnits="objectBoundingBox" id="filter-2">
            <feOffset dx="0" dy="0" in="SourceAlpha" result="shadowOffsetOuter1"></feOffset>
            <feGaussianBlur stdDeviation="9" in="shadowOffsetOuter1" result="shadowBlurOuter1"></feGaussianBlur>
            <feColorMatrix values="0 0 0 0 0.292093217   0 0 0 0 0.99387747   0 0 0 0 0.99262172  0 0 0 1 0" type="matrix" in="shadowBlurOuter1"></feColorMatrix>
        </filter>
        <filter x="-17.6%" y="-10.2%" width="135.2%" height="120.3%" filterUnits="objectBoundingBox" id="filter-3">
            <feGaussianBlur stdDeviation="1.5" in="SourceAlpha" result="shadowBlurInner1"></feGaussianBlur>
            <feOffset dx="0" dy="0" in="shadowBlurInner1" result="shadowOffsetInner1"></feOffset>
            <feComposite in="shadowOffsetInner1" in2="SourceAlpha" operator="arithmetic" k2="-1" k3="1" result="shadowInnerInner1"></feComposite>
            <feColorMatrix values="0 0 0 0 0.298039216   0 0 0 0 0.48627451   0 0 0 0 0.952941176  0 0 0 1 0" type="matrix" in="shadowInnerInner1"></feColorMatrix>
        </filter>
    </defs>
    <g id="Page-1" stroke="none" stroke-width="1" fill="none" fill-rule="evenodd">
        <g id="CLOUD-Web-(D)" transform="translate(-637.000000, -980.000000)" fill-rule="nonzero">
            <g id="Benefits" transform="translate(119.000000, 888.000000)">
                <g id="Group-14" transform="translate(91.000000, 101.000000)">
                    <g id="Upright" transform="translate(427.000000, 8.000000)">
                        <path d="M147.578187,84.5768725 C147.578187,83.8010512 147.86912,83.0737188 148.402497,82.5403417 L159.215506,71.8243101 C159.748883,71.290933 160.524704,71 161.252037,71 C161.979369,71 162.706702,71.2424442 163.288568,71.8243101 C164.403811,72.9395532 164.403811,74.7821288 163.288568,75.8973719 L154.560578,84.6253614 L163.288568,93.3533509 C164.403811,94.468594 164.403811,96.3111695 163.288568,97.4264126 C162.173325,98.5416557 160.330749,98.5416557 159.215506,97.4264126 L148.402497,86.6134034 C147.86912,86.0800263 147.578187,85.3526938 147.578187,84.5768725 Z M133.383081,86.6134034 C132.267838,85.4981603 132.267838,83.6555848 133.383081,82.5403417 L144.196091,71.8243101 C144.729468,71.290933 145.505289,71 146.232622,71 C146.959954,71 147.687286,71.2424442 148.269152,71.8243101 C149.384396,72.9395532 149.384396,74.7821288 148.269152,75.8973719 L139.541163,84.6253614 L148.269152,93.3533509 C149.384396,94.468594 149.384396,96.3111695 148.269152,97.4264126 C147.153909,98.5416557 145.311334,98.5416557 144.196091,97.4264126 L133.383081,86.6134034 Z M118.836432,86.6134034 C117.721189,85.4981603 117.721189,83.6555848 118.836432,82.5403417 L129.649442,71.8243101 C130.182819,71.290933 130.95864,71 131.685972,71 C132.413305,71 133.140637,71.2424442 133.722503,71.8243101 C134.837746,72.9395532 134.837746,74.7821288 133.722503,75.8973719 L124.994514,84.6253614 L133.722503,93.3533509 C134.837746,94.468594 134.837746,96.3111695 133.722503,97.4264126 C132.60726,98.5416557 130.764685,98.5416557 129.649442,97.4264126 L118.836432,86.6134034 Z" id="Combined-Shape" fill="#FFFFFF"></path>
                        <path d="M29.5781866,84.5768725 C29.5781866,83.8010512 29.8691196,83.0737188 30.4024967,82.5403417 L41.2155059,71.8243101 C41.748883,71.290933 42.5247043,71 43.2520368,71 C43.9793693,71 44.7067017,71.2424442 45.2885677,71.8243101 C46.4038108,72.9395532 46.4038108,74.7821288 45.2885677,75.8973719 L36.5605782,84.6253614 L45.2885677,93.3533509 C46.4038108,94.468594 46.4038108,96.3111695 45.2885677,97.4264126 C44.1733246,98.5416557 42.330749,98.5416557 41.2155059,97.4264126 L30.4024967,86.6134034 C29.8691196,86.0800263 29.5781866,85.3526938 29.5781866,84.5768725 Z M15.3830815,86.6134034 C14.2678384,85.4981603 14.2678384,83.6555848 15.3830815,82.5403417 L26.1960907,71.8243101 C26.7294678,71.290933 27.5052891,71 28.2326216,71 C28.959954,71 29.6872865,71.2424442 30.2691524,71.8243101 C31.3843955,72.9395532 31.3843955,74.7821288 30.2691524,75.8973719 L21.5411629,84.6253614 L30.2691524,93.3533509 C31.3843955,94.468594 31.3843955,96.3111695 30.2691524,97.4264126 C29.1539093,98.5416557 27.3113338,98.5416557 26.1960907,97.4264126 L15.3830815,86.6134034 Z M0.836432326,86.6134034 C-0.278810775,85.4981603 -0.278810775,83.6555848 0.836432326,82.5403417 L11.6494415,71.8243101 C12.1828187,71.290933 12.9586399,71 13.6859724,71 C14.4133049,71 15.1406373,71.2424442 15.7225033,71.8243101 C16.8377464,72.9395532 16.8377464,74.7821288 15.7225033,75.8973719 L6.9945138,84.6253614 L15.7225033,93.3533509 C16.8377464,94.468594 16.8377464,96.3111695 15.7225033,97.4264126 C14.6072602,98.5416557 12.7646846,98.5416557 11.6494415,97.4264126 L0.836432326,86.6134034 Z" id="Combined-Shape-Copy" fill="#FFFFFF" transform="translate(23.062500, 84.631422) rotate(180.000000) translate(-23.062500, -84.631422) "></path>
                        <g id="Combined-Shape">
                            <use fill="black" fill-opacity="1" filter="url(#filter-2)" xlink:href="#path-1"></use>
                            <use fill="#4AFDFD" xlink:href="#path-1"></use>
                            <use fill="black" fill-opacity="1" filter="url(#filter-3)" xlink:href="#path-1"></use>
                        </g>
                    </g>
                </g>
            </g>
        </g>
    </g>
</svg>